<?xml version="1.0" standalone="no"?>
<!DOCTYPE svg PUBLIC "-//W3C//DTD SVG 1.1//EN" "http://www.w3.org/Graphics/SVG/1.1/DTD/svg11.dtd" >
<svg xmlns="http://www.w3.org/2000/svg" xmlns:xlink="http://www.w3.org/1999/xlink" version="1.1">
<metadata>
Created by FontForge 20150102 at Tue Mar 17 07:59:11 2015
 By uniteet7
Copyright (c) ParaType, Inc., 2007. All rights reserved.
</metadata>
<defs>
<font id="PARANGON330C" horiz-adv-x="560" >
  <font-face 
    font-family="PARANGON330C"
    font-weight="400"
    font-stretch="normal"
    units-per-em="1000"
    panose-1="2 11 5 3 3 5 2 2 2 4"
    ascent="800"
    descent="-200"
    x-height="500"
    cap-height="700"
    bbox="-20 -288 1419 875"
    underline-thickness="50"
    underline-position="-50"
    unicode-range="U+0020-FB02"
  />
<missing-glyph horiz-adv-x="233" 
 />
    <glyph glyph-name="fi" unicode="fi" horiz-adv-x="502" 
d="M284 500v-70h-126v-430h-88v497q0 102 46 152q22 24 52 36t49 13.5t51 1.5h164v-98h-88v28h-81h-16q-45 0 -68 -28q-21 -25 -21 -73v-29h126zM432 0h-88v500h88v-500z" />
    <glyph glyph-name="fl" unicode="fl" horiz-adv-x="502" 
d="M284 500v-70h-126v-430h-88v490q0 107 44 157q21 24 50.5 36.5t49 14.5t49.5 2h5h164v-700h-88v630h-81h-16q-45 0 -68 -28q-21 -25 -21 -73v-29h126z" />
    <glyph glyph-name=".notdef" horiz-adv-x="233" 
 />
    <glyph glyph-name=".null" horiz-adv-x="0" 
 />
    <glyph glyph-name="nonmarkingreturn" horiz-adv-x="333" 
 />
    <glyph glyph-name="space" unicode=" " horiz-adv-x="233" 
 />
    <glyph glyph-name="exclam" unicode="!" horiz-adv-x="258" 
d="M80 700h98l-13 -510h-72zM81 100h96v-100h-96v100z" />
    <glyph glyph-name="quotedbl" unicode="&#x22;" horiz-adv-x="412" 
d="M70 700h86v-105l-23 -125h-40l-23 125v105zM256 700h86v-105l-23 -125h-40l-23 125v105z" />
    <glyph glyph-name="numbersign" unicode="#" horiz-adv-x="696" 
d="M123 494h111l40 206h65l-39 -206h147l40 206h68l-40 -206h111l-13 -67h-111l-27 -139h111l-13 -67h-111l-43 -221h-68l45 221h-147l-42 -221h-69l43 221h-111l13 67h111l27 139h-111zM288 427l-26 -139h147l26 139h-147z" />
    <glyph glyph-name="dollar" unicode="$" horiz-adv-x="656" 
d="M70 228h92q0 -84 55 -128q36 -29 90 -34v264l-6 2q-13 4 -37.5 11t-38.5 11.5t-34.5 15t-38.5 24.5q-62 50 -62 129q0 87 69 138q63 47 148 44v83h42v-83q78 0 143 -51q80 -63 80 -177h-88q3 83 -56 131q-35 28 -79 30v-243q95 -17 151 -51q87 -55 86 -154
q0 -98 -87 -154q-63 -41 -150 -41v-82h-42v82q-83 3 -144 50q-38 29 -64 77.5t-29 105.5zM307 407v231q-51 0 -88 -27q-41 -30 -43 -81q-2 -56 44 -88q29 -20 87 -35zM349 319v-253q51 0 94 28q53 35 53 93q0 65 -57 100q-26 17 -90 32z" />
    <glyph glyph-name="percent" unicode="%" horiz-adv-x="1039" 
d="M713 700h90l-478 -700h-90zM607 200q0 87 43 142q51 66 138 66t138 -66q43 -55 43 -142q0 -88 -43 -143q-51 -66 -138 -66t-138 66q-43 55 -43 143zM683 200q0 -59 22 -95q29 -48 83 -48t83 48q22 36 22 95t-22 95q-29 49 -83 49t-83 -49q-22 -36 -22 -95zM70 501
q0 87 43 142q51 66 138 66t138 -66q43 -55 43 -142q0 -88 -43 -143q-51 -66 -138 -66t-138 66q-43 55 -43 143zM146 501q0 -59 22 -95q29 -48 83 -48t83 48q22 36 22 95t-22 95q-29 49 -83 49t-83 -49q-22 -36 -22 -95z" />
    <glyph glyph-name="ampersand" unicode="&#x26;" horiz-adv-x="572" 
d="M592 55l-55 -55l-263 334l-59 -59q-61 -61 -61 -117q0 -46 32 -75t82 -28q77 2 129 69l45 -56q-66 -83 -179 -84q-51 0 -90.5 16t-61 43t-32 56.5t-9.5 60.5q1 37 17.5 71.5t31 50.5t42.5 43l62 60l-47 47q-62 62 -62 134q0 62 44.5 106t115.5 44q65 0 113 -40.5
t47 -109.5q-1 -73 -63 -135l-47 -47zM274 434l44 47q35 37 38 82q2 35 -19.5 61.5t-62.5 26.5q-38 0 -60.5 -23.5t-21.5 -62.5q2 -44 39 -84z" />
    <glyph glyph-name="quotesingle" unicode="'" horiz-adv-x="226" 
d="M70 700h86v-105l-23 -125h-40l-23 125v105z" />
    <glyph glyph-name="parenleft" unicode="(" horiz-adv-x="398" 
d="M328 805v-78q-67 -63 -104 -132q-58 -110 -58 -269q0 -162 58 -269q35 -65 104 -134v-78q-97 58 -161 151q-97 141 -97 329t96 329q62 91 162 151z" />
    <glyph glyph-name="parenright" unicode=")" horiz-adv-x="398" 
d="M70 805q100 -60 162 -151q96 -141 96 -329t-97 -329q-64 -93 -161 -151v78q69 69 104 134q58 107 58 269q0 159 -58 269q-37 69 -104 132v78z" />
    <glyph glyph-name="asterisk" unicode="*" horiz-adv-x="455" 
d="M197 700h60v-112l109 37l19 -59l-106 -37l69 -92l-52 -37l-70 93l53 36l-22 59h-60l-20 -57l49 -38l-67 -94l-53 38l71 94l-107 36l20 60l107 -39v112z" />
    <glyph glyph-name="plus" unicode="+" horiz-adv-x="660" 
d="M70 338h223v222h74v-222h223v-68h-223v-230h-74v230h-223v68z" />
    <glyph glyph-name="comma" unicode="," horiz-adv-x="249" 
d="M83 100h96v-84q0 -50 -13 -92q-12 -38 -36 -74h-60q27 38 42 77q14 36 14 73h-43v100z" />
    <glyph glyph-name="hyphen" unicode="-" horiz-adv-x="420" 
d="M70 307h280v-73h-280v73z" />
    <glyph glyph-name="period" unicode="." horiz-adv-x="236" 
d="M70 100h96v-100h-96v100z" />
    <glyph glyph-name="slash" unicode="/" horiz-adv-x="404" 
d="M320 750h84l-318 -900h-86z" />
    <glyph glyph-name="zero" unicode="0" horiz-adv-x="580" 
d="M50 345q0 147 42 233q65 128 198 128t198 -128q42 -86 42 -233t-42 -233q-65 -128 -198 -128t-198 128q-42 86 -42 233zM139 347q0 -130 25 -191q37 -92 126 -92t126 92q25 62 25 189q0 132 -25 193q-37 92 -126 92t-126 -92q-25 -61 -25 -191z" />
    <glyph glyph-name="one" unicode="1" horiz-adv-x="570" 
d="M85 543l290 165v-708h-88v575l-202 -116v84z" />
    <glyph glyph-name="two" unicode="2" horiz-adv-x="580" 
d="M159 458h-90v19q0 103 63 166q62 63 166 63q91 0 149 -49q61 -52 63 -142q1 -79 -46 -137q-33 -41 -134 -111q-14 -9 -44.5 -30t-42 -29.5t-29 -23t-28.5 -27.5q-34 -38 -30 -79h359v-78h-450v33q0 33 1 50t10.5 47t28.5 56q20 27 51 51.5t99 72.5q97 67 125 98
q42 45 42 104q0 53 -34 86q-35 34 -93 34q-60 0 -95 -36q-41 -43 -41 -115v-23z" />
    <glyph glyph-name="three" unicode="3" horiz-adv-x="580" 
d="M60 474q2 119 87 185q60 47 146 47q90 0 149 -44q70 -51 70 -140q0 -70 -45 -115q-28 -30 -72 -41q53 -13 92 -56q43 -49 43 -123q-1 -89 -64 -145q-66 -58 -176 -58q-103 0 -168 61q-70 67 -72 175h90q1 -76 44 -119q40 -40 108 -40q65 0 105 33q43 36 43 97
q0 67 -45 104q-36 30 -107 30h-65v74h66q64 0 98 30q37 33 39 88q1 56 -40 87q-35 28 -94 28q-56 0 -95 -31q-51 -43 -51 -127h-86z" />
    <glyph glyph-name="four" unicode="4" horiz-adv-x="580" 
d="M356 690h100l-308 -410v-24h244v124h88v-380h-88v181h-322v122z" />
    <glyph glyph-name="five" unicode="5" horiz-adv-x="580" 
d="M103 690h384v-74h-318l-14 -228q51 67 143 69q93 2 155 -62t62 -169q0 -109 -65 -177q-63 -65 -167 -65q-102 0 -161 68q-51 59 -57 143h88q4 -58 31 -92q36 -46 101 -46q69 0 107 50q33 43 33 120q0 73 -36 116q-39 45 -100 45q-73 0 -112 -57h-96z" />
    <glyph glyph-name="six" unicode="6" horiz-adv-x="590" 
d="M426 629q-92 0 -163 -48q-61 -43 -91 -120q-19 -51 -20 -103q53 86 160 86q93 0 154 -63q64 -66 64 -165q0 -107 -74 -173q-66 -59 -159 -59q-98 0 -159 63q-56 56 -72 157q-6 39 -6 82q0 69 15 134q29 121 114 195q98 87 237 88v-74zM440 214q0 68 -34 109
q-41 48 -109 48q-67 0 -108 -48q-36 -42 -36 -109q0 -64 35 -109q39 -51 109 -51q71 0 110 51q33 41 33 109z" />
    <glyph glyph-name="seven" unicode="7" horiz-adv-x="580" 
d="M70 690h430v-81q-200 -270 -208 -609h-93q18 342 216 616h-345v74z" />
    <glyph glyph-name="eight" unicode="8" horiz-adv-x="580" 
d="M140 191q0 -65 45 -103q41 -34 105 -34t105 34q45 38 45 103t-45 103q-41 34 -105 34t-105 -34q-45 -38 -45 -103zM530 191q1 -97 -72 -155q-65 -52 -168 -52t-168 52q-73 58 -72 155q1 62 37.5 109t99.5 66q-55 17 -87 60.5t-30 103.5q2 81 69 132q58 44 151 44t151 -44
q67 -51 69 -132q2 -60 -30 -103.5t-87 -60.5q63 -19 99.5 -66t37.5 -109zM155 516q0 -58 40 -91q36 -30 95 -30q56 0 93 30q42 35 42 91q0 58 -40 91q-36 30 -95 30t-95 -30q-40 -33 -40 -91z" />
    <glyph glyph-name="nine" unicode="9" horiz-adv-x="590" 
d="M164 58q92 0 163 48q61 43 91 120q20 53 20 105q-53 -86 -160 -86q-91 0 -154 63q-64 64 -64 163q0 104 74 173q66 59 159 59q98 0 159 -63q57 -58 72 -157q6 -34 6 -81q0 -60 -15 -135q-29 -122 -112 -195q-99 -87 -239 -88v74zM150 474q0 -67 35 -108q41 -48 108 -48
t108 48q36 42 36 108q0 65 -35 108q-42 51 -109 51q-68 0 -109 -51q-34 -43 -34 -108z" />
    <glyph glyph-name="colon" unicode=":" horiz-adv-x="236" 
d="M70 500h96v-100h-96v100zM70 100h96v-100h-96v100z" />
    <glyph glyph-name="semicolon" unicode=";" horiz-adv-x="249" 
d="M83 500h96v-100h-96v100zM83 100h96v-84q0 -50 -13 -92q-12 -38 -36 -74h-60q27 38 42 77q14 36 14 73h-43v100z" />
    <glyph glyph-name="semicolon" unicode="&#x37e;" horiz-adv-x="249" 
d="M83 500h96v-100h-96v100zM83 100h96v-84q0 -50 -13 -92q-12 -38 -36 -74h-60q27 38 42 77q14 36 14 73h-43v100z" />
    <glyph glyph-name="less" unicode="&#x3c;" 
d="M70 358l420 202v-70l-356 -175v-22l356 -183v-70l-420 210v108z" />
    <glyph glyph-name="equal" unicode="=" horiz-adv-x="660" 
d="M70 224h520v-67h-520v67zM70 443h520v-67h-520v67z" />
    <glyph glyph-name="greater" unicode="&#x3e;" 
d="M70 560l420 -202v-108l-420 -210v70l356 183v22l-356 175v70z" />
    <glyph glyph-name="question" unicode="?" horiz-adv-x="500" 
d="M40 500q2 83 45 139q59 78 170 77q86 -1 140 -45q64 -51 65 -139q0 -68 -46 -125q-17 -21 -52 -53.5t-45 -43.5q-19 -21 -28 -41.5t-10 -31.5t-1 -33v-14h-88v14q0 78 43 131q14 18 52.5 52.5t45.5 42.5q38 45 38 101q0 55 -33 86q-31 29 -82 29q-62 0 -97 -47
q-31 -43 -27 -99h-90zM186 100h96v-100h-96v100z" />
    <glyph glyph-name="at" unicode="@" horiz-adv-x="973" 
d="M673 554v-264q0 -19 1.5 -33t7 -32t19 -28t34.5 -10h4q43 2 75 56.5t32 143.5q0 82 -32.5 148t-85.5 105t-114 59t-123 20q-153 0 -261.5 -108t-108.5 -262q0 -152 109 -261t261 -109q135 0 237 87l33 -42q-115 -96 -267 -96h-5q-172 2 -295.5 123t-123.5 293v5
q2 175 125 297t296 124h6q116 0 215.5 -56.5t148.5 -149.5q46 -86 46 -180q0 -105 -55.5 -179t-130.5 -76h-3q-41 0 -73 22t-42 61q-42 -81 -139 -83h-3q-80 0 -135 61q-52 58 -52 157q0 96 52 156q55 61 135 61h3q93 -2 136 -77v67h73zM602 348q0 67 -26 107
q-35 53 -100 53t-100 -53q-26 -40 -26 -107q0 -68 26 -108q33 -52 100 -52t100 52q26 40 26 108z" />
    <glyph glyph-name="A" unicode="A" horiz-adv-x="670" 
d="M268 700h134l248 -700h-96l-72 213h-294l-72 -213h-96zM326 632l-114 -347h246l-114 347h-18z" />
    <glyph glyph-name="B" unicode="B" horiz-adv-x="630" 
d="M75 700h240q42 0 63.5 -1t53.5 -9t57 -23q76 -46 76 -139q0 -60 -30 -101t-80 -56q59 -19 90 -66.5t30 -109.5q-1 -106 -78 -157q-26 -18 -61.5 -27t-58.5 -10t-62 -1h-240v700zM165 334v-261h150q83 0 115 20q52 33 52 111q0 76 -52 110q-11 7 -22.5 11.5t-26.5 6.5
t-21.5 2.5t-25 0t-19.5 -0.5h-150zM165 630v-226h150q83 0 114 20q46 29 46 95q0 65 -43 93q-7 4 -14.5 7.5t-16.5 5.5t-16 3t-18.5 1.5t-16.5 0.5h-18.5h-16.5h-150z" />
    <glyph glyph-name="C" unicode="C" horiz-adv-x="710" 
d="M561 248h94q-10 -102 -76 -176q-81 -89 -211 -88q-153 1 -242 122q-71 97 -71 244t71 244q90 122 242 122q126 0 206 -84q68 -70 76 -176h-93q-3 74 -48 125q-52 60 -140 60q-111 0 -173 -95q-47 -75 -47 -195q0 -122 47 -195q61 -94 173 -94q84 0 139 57q51 53 53 129z
" />
    <glyph glyph-name="D" unicode="D" horiz-adv-x="670" 
d="M75 700h170q58 0 95 -3.5t87 -23.5t89 -57q99 -94 99 -266t-99 -266q-56 -54 -119 -69t-152 -15h-170v700zM165 628v-553h88q41 0 67.5 2.5t65 18t67.5 44.5q68 69 68 212q0 141 -68 211q-29 29 -67.5 44.5t-65 18t-67.5 2.5h-88z" />
    <glyph glyph-name="E" unicode="E" horiz-adv-x="590" 
d="M75 700h452v-76h-362v-221h344v-76h-344v-248h370v-79h-460v700z" />
    <glyph glyph-name="F" unicode="F" horiz-adv-x="565" 
d="M75 700h440v-76h-350v-230h327v-77h-327v-317h-90v700z" />
    <glyph glyph-name="G" unicode="G" horiz-adv-x="720" 
d="M319 384h346v-36q0 -150 -59 -241q-82 -124 -241 -123q-153 2 -240 122q-70 97 -70 244q0 146 70 244q87 120 237 122q128 1 211 -82q70 -73 79 -174h-92q-4 68 -47 117q-57 65 -149 64q-109 -1 -167 -90q-48 -72 -48 -200q0 -124 48 -198q58 -90 167 -91q107 -1 168 82
q43 60 43 153v11h-256v76z" />
    <glyph glyph-name="H" unicode="H" horiz-adv-x="680" 
d="M75 700h90v-293h350v293h90v-700h-90v329h-350v-329h-90v700z" />
    <glyph glyph-name="I" unicode="I" horiz-adv-x="262" 
d="M85 700h92v-700h-92v700z" />
    <glyph glyph-name="J" unicode="J" horiz-adv-x="320" 
d="M165 700h90v-482q0 -37 -2.5 -62.5t-17 -63t-41.5 -61.5q-53 -47 -159 -47h-35v78h35q73 0 104 38q26 32 26 118v482z" />
    <glyph glyph-name="K" unicode="K" horiz-adv-x="615" 
d="M75 700h90v-294h124l202 294h102l-229 -328l231 -372h-106l-200 334h-124v-334h-90v700z" />
    <glyph glyph-name="L" unicode="L" horiz-adv-x="475" 
d="M75 700h90v-622h310v-78h-400v700z" />
    <glyph glyph-name="M" unicode="M" horiz-adv-x="990" 
d="M65 0v403v14q0 48 1.5 74.5t13 67t34.5 70.5q65 83 181 83q65 0 118.5 -33t81.5 -95q28 62 81.5 95t118.5 33q116 0 181 -83q23 -30 34.5 -70.5t13 -67t1.5 -74.5v-14v-403h-92v414q0 111 -22 152q-35 68 -118 68q-89 0 -129 -71q-12 -22 -18 -52t-6.5 -44.5t-0.5 -52.5
v-414h-88v414v9q0 96 -25 140q-40 71 -129 71q-83 0 -118 -68q-22 -41 -22 -152v-414h-92z" />
    <glyph glyph-name="N" unicode="N" horiz-adv-x="650" 
d="M65 0v394q0 42 1 59t5.5 54t18 66t36.5 56q73 85 199 85q127 0 200 -85q22 -26 35.5 -55.5t18.5 -67t5.5 -54.5t0.5 -58v-394h-92v400q0 40 -0.5 57.5t-8 52t-23.5 58.5q-45 69 -136 69q-91 -1 -135 -69q-15 -23 -23 -55t-9 -53.5t-1 -60.5v-399h-92z" />
    <glyph glyph-name="O" unicode="O" horiz-adv-x="720" 
d="M55 350q0 161 80 259q88 107 225 107t225 -107q80 -98 80 -259t-80 -259q-88 -107 -225 -107t-225 107q-80 98 -80 259zM149 352q0 -127 49 -200q29 -42 71.5 -66t90.5 -24t90.5 24t71.5 66q49 73 49 200q0 126 -49 199q-29 42 -71.5 66t-90.5 24t-90.5 -24t-71.5 -66
q-49 -73 -49 -199z" />
    <glyph glyph-name="P" unicode="P" horiz-adv-x="610" 
d="M80 700h202q44 0 68.5 -1.5t61.5 -12t66 -31.5q82 -59 82 -174t-82 -174q-29 -21 -66 -31.5t-61.5 -12t-68.5 -1.5h-112v-262h-90v700zM170 628v-292h118q91 0 129 29q50 36 50 117t-50 117q-38 29 -129 29h-118z" />
    <glyph glyph-name="Q" unicode="Q" horiz-adv-x="729" 
d="M55 350q0 161 80 259q88 107 225 107q139 0 225 -107q80 -100 80 -259q0 -149 -63 -234l77 -70l-53 -62l-77 72q-72 -72 -189 -72q-139 0 -225 107q-80 98 -80 259zM149 352q0 -127 49 -200q29 -42 71.5 -66t90.5 -24t90.5 24t71.5 66q49 73 49 200q0 126 -49 199
q-29 42 -71.5 66t-90.5 24t-90.5 -24t-71.5 -66q-49 -73 -49 -199z" />
    <glyph glyph-name="R" unicode="R" horiz-adv-x="625" 
d="M75 700h215q42 0 67.5 -1.5t59.5 -10t60 -24.5q82 -54 82 -161q0 -80 -50 -131q-34 -35 -78 -45q38 -14 63 -71l111 -256h-102l-95 229q-19 46 -47 60q-19 9 -73 9h-123v-298h-90v700zM165 626v-256h138q85 0 117 22q47 31 47 106t-47 106q-32 22 -117 22h-138z" />
    <glyph glyph-name="S" unicode="S" horiz-adv-x="640" 
d="M55 224h94q0 -82 52 -125q48 -39 127 -39q72 0 113 30q49 34 50 99q0 64 -54 96q-26 16 -139 46q-3 1 -19.5 5.5t-20.5 5.5t-18.5 5t-20 6.5t-18 7t-19.5 8t-16.5 8.5t-17.5 10.5t-15 11.5q-58 49 -58 128q0 89 70 141q66 49 173 48q106 0 176 -56q80 -64 85 -180h-90
q-4 96 -60 134q-42 29 -115 29q-70 0 -109 -30q-39 -32 -38 -86q1 -51 44 -82q5 -3 10.5 -6t10 -5.5t13 -5.5t13.5 -4.5t17 -5t18.5 -5t22.5 -6t25 -6.5q116 -30 160 -59q85 -55 84 -157q-2 -102 -85 -157q-67 -44 -172 -44q-115 0 -185 55q-40 32 -64 81.5t-24 103.5z" />
    <glyph glyph-name="T" unicode="T" 
d="M20 700h520v-76h-216v-624h-90v624h-214v76z" />
    <glyph glyph-name="U" unicode="U" horiz-adv-x="650" 
d="M65 700h92v-396q0 -39 1 -60.5t9 -53.5t23 -55q44 -68 135 -69q91 0 136 69q16 24 23.5 58.5t8 52t0.5 57.5v397h92v-394q0 -41 -0.5 -58t-5.5 -54.5t-18.5 -67t-35.5 -55.5q-73 -85 -200 -85q-126 0 -199 85q-23 27 -36.5 56t-18 66t-5.5 54t-1 59v394z" />
    <glyph glyph-name="V" unicode="V" horiz-adv-x="640" 
d="M20 700h96l196 -631h16l196 631h96l-229 -700h-142z" />
    <glyph glyph-name="W" unicode="W" horiz-adv-x="990" 
d="M65 700h92v-411q0 -111 22 -152q35 -68 118 -68q89 0 129 71q12 22 18 52t6.5 44.5t0.5 52.5v411h88v-411v-9q0 -96 25 -140q40 -71 129 -71q83 0 118 68q22 41 22 152v411h92v-403v-14q0 -48 -1.5 -74.5t-13 -67t-34.5 -70.5q-65 -83 -181 -83q-65 0 -118.5 33t-81.5 95
q-28 -62 -81.5 -95t-118.5 -33q-116 0 -181 83q-23 30 -34.5 70.5t-13 67t-1.5 74.5v14v403z" />
    <glyph glyph-name="X" unicode="X" horiz-adv-x="640" 
d="M32 700h102l182 -296h8l182 296h102l-210 -329l222 -371h-104l-192 332h-8l-192 -332h-104l222 371z" />
    <glyph glyph-name="Y" unicode="Y" horiz-adv-x="600" 
d="M20 700h96l184 -330l184 330h96l-234 -403v-297h-92v297z" />
    <glyph glyph-name="Z" unicode="Z" horiz-adv-x="580" 
d="M35 700h510v-85l-418 -536h428v-79h-530v89l419 535h-409v76z" />
    <glyph glyph-name="bracketleft" unicode="[" horiz-adv-x="334" 
d="M70 800h194v-72h-108v-803h108v-75h-194v950z" />
    <glyph glyph-name="backslash" unicode="\" horiz-adv-x="404" 
d="M0 750h84l320 -900h-86z" />
    <glyph glyph-name="bracketright" unicode="]" horiz-adv-x="334" 
d="M70 800h194v-950h-194v75h108v803h-108v72z" />
    <glyph glyph-name="asciicircum" unicode="^" 
d="M233 750h94l183 -301h-86l-137 238h-14l-137 -238h-86z" />
    <glyph glyph-name="underscore" unicode="_" horiz-adv-x="670" 
d="M60 -220h550v-68h-550v68z" />
    <glyph glyph-name="grave" unicode="`" horiz-adv-x="256" 
d="M30 700h82l114 -160h-82z" />
    <glyph glyph-name="a" unicode="a" horiz-adv-x="600" 
d="M530 500v-500h-83l-5 83q-54 -95 -169 -97q-99 -1 -162 74q-61 73 -61 190t61 190q63 75 162 74q116 -2 169 -95l5 81h83zM445 252q0 84 -30 130q-43 66 -122 66q-77 0 -119 -63q-33 -49 -33 -133t33 -134q42 -63 119 -63q79 0 122 66q30 47 30 131z" />
    <glyph glyph-name="b" unicode="b" horiz-adv-x="600" 
d="M70 700h88v-281q53 93 169 95q99 1 162 -74q61 -73 61 -190t-61 -190q-63 -75 -162 -74q-115 2 -169 97l-3 -83h-85v700zM155 252q0 -84 30 -131q43 -66 122 -66q77 0 119 63q32 49 32 134q0 84 -32 133q-42 63 -119 63q-79 0 -122 -66q-30 -46 -30 -130z" />
    <glyph glyph-name="c" unicode="c" 
d="M418 181h92q-10 -83 -66 -137q-60 -60 -156 -60q-114 0 -181 85q-57 73 -57 181t57 181q68 85 180 85q98 0 157 -59q55 -52 61 -136h-90q-1 48 -32 84q-37 42 -98 42q-74 0 -114 -66q-29 -48 -29 -130q0 -80 29 -128q39 -65 114 -67q60 -1 99 41q31 34 34 84z" />
    <glyph glyph-name="d" unicode="d" horiz-adv-x="600" 
d="M442 700h88v-700h-85l-3 83q-54 -95 -169 -97q-99 -1 -162 74q-61 73 -61 190t61 190q63 75 162 74q116 -2 169 -95v281zM445 252q0 84 -30 130q-43 66 -122 66q-77 0 -119 -63q-33 -49 -33 -133q0 -85 33 -134q42 -63 119 -63q79 0 122 66q30 47 30 131z" />
    <glyph glyph-name="e" unicode="e" horiz-adv-x="570" 
d="M286 451q-74 0 -115 -56q-31 -42 -31 -101h292q1 59 -30 101q-41 56 -116 56zM429 162h87q-13 -67 -58 -112q-64 -66 -169 -66q-114 0 -180 80q-59 71 -59 186q0 114 59 186q65 80 176 80q119 0 184 -86q51 -67 51 -180v-17h-382q-2 -71 28 -118q39 -63 123 -63
q65 0 104 39q30 29 36 71z" />
    <glyph glyph-name="f" unicode="f" horiz-adv-x="300" 
d="M278 500v-70h-120v-434h-88v501q0 35 1 52.5t10 51.5t28 56q17 19 37.5 31.5t45.5 17t40 5.5t40 1h8v-70h-13q-65 0 -92 -38q-17 -24 -17 -91v-13h120z" />
    <glyph glyph-name="g" unicode="g" horiz-adv-x="600" 
d="M530 500v-500q0 -104 -44 -156q-51 -60 -151 -60h-15v67h15q27 0 50.5 12.5t36.5 31.5q20 30 20 105v83q-54 -95 -169 -97q-99 -1 -162 74q-61 73 -61 190t61 190q63 75 162 74q116 -2 169 -95l3 81h85zM445 252q0 84 -30 130q-43 66 -122 66q-77 0 -119 -63
q-32 -49 -32 -133q0 -85 32 -134q42 -63 119 -63q79 0 122 66q30 47 30 131z" />
    <glyph glyph-name="h" unicode="h" 
d="M70 700h89v-279q22 39 58 61q45 28 103 30q46 1 85.5 -17.5t62.5 -51.5q15 -22 22.5 -52t8.5 -47.5t1 -49.5v-294h-90v291q0 70 -14 97q-28 52 -95 52q-71 0 -112 -55q-15 -20 -22 -45.5t-8 -42.5t-1 -50v-247h-88v700z" />
    <glyph glyph-name="i" unicode="i" horiz-adv-x="248" 
d="M80 700h88v-98h-88v98zM80 500h88v-500h-88v500z" />
    <glyph glyph-name="j" unicode="j" horiz-adv-x="248" 
d="M80 700h88v-98h-88v98zM80 500h88v-700h-88v700z" />
    <glyph glyph-name="k" unicode="k" horiz-adv-x="510" 
d="M70 700h88v-405h99l137 205h93l-162 -234l165 -266h-100l-134 230h-98v-230h-88v700z" />
    <glyph glyph-name="l" unicode="l" horiz-adv-x="248" 
d="M80 700h88v-700h-88v700z" />
    <glyph glyph-name="m" unicode="m" horiz-adv-x="827" 
d="M70 500h85l4 -78q19 37 50 60q41 31 94 32q51 2 87 -24.5t53 -71.5q21 45 61 69.5t90 26.5q103 3 148 -76q13 -22 18.5 -52.5t6 -45.5t0.5 -56v-284h-91v288q0 79 -11 102q-24 51 -89 50t-95 -50q-20 -33 -20 -102v-288h-88v288q0 77 -12 103q-23 47 -77 49
q-64 2 -99 -54q-27 -42 -27 -135v-251h-88v500z" />
    <glyph glyph-name="n" unicode="n" 
d="M70 500h85l4 -80q21 39 57 62q45 30 103 30q99 0 146 -70q17 -24 25 -59t9 -55.5t1 -60.5v-267h-91v276q0 78 -18 110q-29 52 -95 52q-68 0 -106 -52q-15 -20 -22.5 -45t-8.5 -41.5t-1 -48.5v-251h-88v500z" />
    <glyph glyph-name="o" unicode="o" horiz-adv-x="590" 
d="M50 250q0 113 62 185q69 81 183 81t183 -81q62 -72 62 -185t-62 -185q-69 -81 -183 -81t-183 81q-62 72 -62 185zM142 252q0 -81 29 -127q43 -69 125 -69q81 0 123 69q29 46 29 127q0 80 -29 126q-42 69 -124 69t-124 -69q-29 -46 -29 -126z" />
    <glyph glyph-name="p" unicode="p" horiz-adv-x="600" 
d="M70 500h85l3 -81q53 93 169 95q99 1 162 -74q61 -73 61 -190t-61 -190q-63 -75 -162 -74q-115 2 -169 97v-283h-88v700zM155 252q0 -84 30 -131q43 -66 122 -66q77 0 119 63q32 49 32 134q0 84 -32 133q-42 63 -119 63q-79 0 -122 -66q-30 -46 -30 -130z" />
    <glyph glyph-name="q" unicode="q" horiz-adv-x="600" 
d="M530 500v-700h-88v283q-54 -95 -169 -97q-99 -1 -162 74q-61 73 -61 190t61 190q63 75 162 74q116 -2 169 -95l3 81h85zM445 252q0 84 -30 130q-43 66 -122 66q-77 0 -119 -63q-32 -49 -32 -133q0 -85 32 -134q42 -63 119 -63q79 0 122 66q30 47 30 131z" />
    <glyph glyph-name="r" unicode="r" horiz-adv-x="375" 
d="M70 500h85l4 -80q17 35 52 64q39 28 89 28q29 0 60 -11v-83q-36 20 -74 20q-61 0 -98 -52q-14 -20 -21 -45.5t-8 -43.5t-1 -52v-245h-88v500z" />
    <glyph glyph-name="s" unicode="s" horiz-adv-x="520" 
d="M50 168h89q-2 -63 39 -95q33 -26 90 -26q51 0 78 17q35 22 35 64q0 50 -56 72q-11 5 -24.5 8.5t-40.5 11t-57 16.5q-77 23 -104 50q-34 32 -34 88q1 71 58 110q51 34 136 34q82 0 133 -33q76 -49 78 -149h-86q2 69 -45 100q-30 20 -81 20q-45 0 -74 -18q-33 -21 -33 -59
q0 -35 29 -54q21 -14 99 -36q107 -30 134 -49q58 -41 57 -112q-3 -77 -68 -116q-49 -30 -132 -30q-97 0 -154 45q-63 51 -66 141z" />
    <glyph glyph-name="t" unicode="t" horiz-adv-x="294" 
d="M20 500h83v96l88 47v-143h83v-66h-83v-434h-88v434h-83v66z" />
    <glyph glyph-name="u" unicode="u" 
d="M60 500h91v-276q0 -78 18 -110q29 -52 95 -52q68 -1 107 52q31 43 31 135v251h88v-500h-85l-4 80q-21 -39 -57 -62q-45 -30 -103 -30q-98 0 -145 70q-36 52 -36 175v267z" />
    <glyph glyph-name="v" unicode="v" horiz-adv-x="510" 
d="M20 500h93l134 -435h16l134 435h93l-167 -500h-136z" />
    <glyph glyph-name="w" unicode="w" horiz-adv-x="820" 
d="M60 500h90v-285q0 -73 18 -104q30 -51 90 -51q59 0 89 51q20 36 20 104v285h86v-285q0 -69 20 -104q31 -51 89 -51q61 0 90 51q18 32 18 104v285h90v-284q0 -106 -33 -154q-50 -75 -152 -76q-15 0 -30 2.5t-43 12t-52.5 35t-39.5 64.5q-15 -39 -39.5 -64.5t-52.5 -35
t-43 -12t-30 -2.5q-102 1 -152 76q-33 48 -33 154v284z" />
    <glyph glyph-name="x" unicode="x" horiz-adv-x="510" 
d="M30 500h94l127 -203h8l127 203h94l-155 -235l165 -265h-98l-133 228h-8l-133 -228h-98l165 265z" />
    <glyph glyph-name="y" unicode="y" horiz-adv-x="530" 
d="M20 500h94l151 -432h15l136 432h94l-189 -560q-3 -8 -9 -26.5t-8.5 -25.5t-7.5 -20t-8.5 -19.5t-8.5 -14.5t-11 -14q-34 -36 -89 -36h-10v72q26 -2 41 13q14 12 29 61l22 70h-18q-36 0 -53 44z" />
    <glyph glyph-name="z" unicode="z" horiz-adv-x="480" 
d="M44 500h396v-78l-303 -349h303v-73h-400v81l302 349h-298v70z" />
    <glyph glyph-name="braceleft" unicode="{" horiz-adv-x="438" 
d="M70 384h30q26 0 42.5 9t23.5 25t9.5 30t2.5 33v164q0 88 44.5 121.5t118.5 33.5h27v-72h-18q-46 0 -66 -21t-20 -71v-176q0 -81 -65 -112q65 -28 65 -110v-220q0 -49 19 -71t68 -22h17v-75h-27q-82 0 -122.5 36.5t-40.5 123.5v207q0 24 -2 37t-9 27.5t-25 20.5t-47 6h-25
v76z" />
    <glyph glyph-name="bar" unicode="|" horiz-adv-x="248" 
d="M80 750h88v-900h-88v900z" />
    <glyph glyph-name="braceright" unicode="}" horiz-adv-x="438" 
d="M70 800h27q74 0 118.5 -33.5t44.5 -121.5v-164q0 -19 2.5 -33t9.5 -30t23.5 -25t42.5 -9h30v-76h-25q-29 0 -47 -6t-25 -20.5t-9 -27.5t-2 -37v-207q0 -87 -40.5 -123.5t-122.5 -36.5h-27v75h17q49 0 68 22t19 71v220q0 82 65 110q-65 31 -65 112v176q0 50 -20 71t-66 21
h-18v72z" />
    <glyph glyph-name="asciitilde" unicode="~" horiz-adv-x="660" 
d="M70 324q67 60 128 60q50 0 132 -46q5 -3 24.5 -14.5t26 -14.5t22 -10.5t23.5 -10.5t20 -5.5t23 -2.5q57 0 121 72v-68q-67 -60 -128 -60q-50 0 -132 46q-5 3 -24.5 14.5t-26 14.5t-22 10.5t-23.5 10.5t-20 5.5t-23 2.5q-57 0 -121 -72v68z" />
    <glyph glyph-name="nbspace" unicode="&#xa0;" horiz-adv-x="233" 
 />
    <glyph glyph-name="exclamdown" unicode="&#xa1;" horiz-adv-x="258" 
d="M93 510h72l13 -510h-98zM81 700h96v-100h-96v100z" />
    <glyph glyph-name="cent" unicode="&#xa2;" horiz-adv-x="610" 
d="M449 188h91q-3 -89 -65 -147q-60 -54 -146 -57v-184h-44v185q-97 7 -159 83q-56 70 -56 182t56 182q62 76 159 83v185h44v-185q87 -3 143 -56q59 -55 63 -143h-88q-5 53 -35 88q-31 37 -83 42v-389q53 6 85 41q34 36 35 90zM285 57v389q-59 -8 -93 -63q-31 -50 -31 -132
q0 -78 31 -129q34 -56 93 -65z" />
    <glyph glyph-name="sterling" unicode="&#xa3;" horiz-adv-x="600" 
d="M70 364h74v122q0 35 1.5 56t12.5 52.5t31 55.5q51 60 148 60t148 -60q45 -53 45 -131v-9h-80v10q0 50 -22 83q-29 43 -91 43t-91 -43q-22 -31 -22 -94v-7v-138h213v-56h-213v-89v-7q0 -32 -1.5 -49.5t-11.5 -41.5t-30 -47h349v-74h-460v74q74 35 74 122v112h-74v56z" />
    <glyph glyph-name="currency" unicode="&#xa4;" horiz-adv-x="599" 
d="M70 521l43 43l49 -50q62 48 135 48q77 0 139 -47l49 50l44 -44l-50 -49q47 -63 47 -136q0 -76 -48 -138l50 -49l-43 -43l-49 50q-62 -48 -140 -48q-71 0 -133 48l-49 -50l-44 44l50 49q-48 62 -48 136q0 75 48 137zM299 176q67 0 113.5 46t46.5 114q0 66 -46.5 112.5
t-113.5 46.5q-68 0 -114 -46t-46 -113q0 -68 46.5 -114t113.5 -46z" />
    <glyph glyph-name="yen" unicode="&#xa5;" horiz-adv-x="700" 
d="M70 700h94l186 -313l186 313h94l-211 -336h189v-56h-212v-108h212v-56h-212v-144h-92v144h-212v56h212v108h-212v56h189z" />
    <glyph glyph-name="brokenbar" unicode="&#xa6;" horiz-adv-x="248" 
d="M80 750h88v-280h-88v280zM80 130h88v-280h-88v280z" />
    <glyph glyph-name="section" unicode="&#xa7;" horiz-adv-x="564" 
d="M455 557h-85q1 37 -19 69.5t-69 33.5q-40 1 -65 -22.5t-23 -57.5q1 -24 13.5 -42t24.5 -26t35 -19l120 -62q109 -55 107 -149q-1 -39 -26 -77.5t-86 -52.5q77 -45 77 -132q0 -68 -49.5 -112t-127.5 -44q-45 0 -79 14t-52 34t-29.5 46.5t-14.5 47.5t-3 42h86
q2 -52 23.5 -82t68.5 -29q42 1 67 24.5t24 55.5q0 18 -5.5 32t-19.5 26t-21 16.5t-28 16.5l-124 71q-22 12 -36 22.5t-32.5 28t-27.5 41.5t-9 53q1 24 8.5 47t34 48.5t69.5 34.5q-71 41 -73 123q-1 59 44 104.5t129 44.5q44 -1 78.5 -16t54.5 -40t30 -53.5t10 -59.5z
M232 236l81 -47q47 3 72 29.5t27 55.5q1 19 -6 35.5t-21.5 29t-24.5 19.5t-26 15l-83 44q-46 -3 -72 -29.5t-27 -55.5q0 -18 6.5 -33t21 -27.5t24.5 -19t28 -16.5z" />
    <glyph glyph-name="dieresis" unicode="&#xa8;" horiz-adv-x="570" 
d="M119 700h82v-105h-82v105zM370 700h82v-105h-82v105z" />
    <glyph glyph-name="copyright" unicode="&#xa9;" horiz-adv-x="982" 
d="M628 277h72q-8 -73 -54 -123q-56 -60 -153 -60q-107 0 -167 82q-50 68 -51 174q-2 102 52 175q61 82 166 82q96 1 150 -58q46 -54 53 -126h-71q1 54 -33 90q-37 39 -100 39q-75 -1 -114 -64q-31 -50 -31 -137q0 -86 31 -136q39 -62 113 -64q64 -2 101 37q32 34 36 89z
M70 349q0 175 123 298t298 123t298 -123t123 -298t-123 -298t-298 -123t-298 123t-123 298zM126 349q0 -151 107 -258t258 -107t258 107t107 258t-107 258t-258 107t-258 -107t-107 -258z" />
    <glyph glyph-name="ordfeminine" unicode="&#xaa;" horiz-adv-x="410" 
d="M342 700v-199v-9.5v-10.5t0.5 -10.5t2 -11.5t3.5 -10t6 -10t8.5 -7.5t11.5 -6.5t16 -3l-16 -45q-30 1 -53.5 17.5t-31.5 47.5q-30 -61 -105 -63q-62 -2 -104 46q-40 46 -40 119q0 71 40 118q41 47 104 46q70 0 103 -58v50h55zM288 545q0 50 -20 81q-27 40 -75 40
q-49 0 -76 -40q-19 -30 -19 -81q0 -52 19 -82q26 -39 76 -39q51 0 75 39q20 31 20 82z" />
    <glyph glyph-name="guillemotleft" unicode="&#xab;" horiz-adv-x="568" 
d="M70 285l200 225v-108l-128 -141v-22l128 -141v-108l-200 225v70zM298 285l200 225v-108l-128 -141v-22l128 -141v-108l-200 225v70z" />
    <glyph glyph-name="logicalnot" unicode="&#xac;" horiz-adv-x="660" 
d="M70 302h520v-190h-63v127h-457v63z" />
    <glyph glyph-name="uni00AD" unicode="&#xad;" horiz-adv-x="420" 
d="M70 307h280v-73h-280v73z" />
    <glyph glyph-name="registered" unicode="&#xae;" horiz-adv-x="982" 
d="M322 595h157q81 0 122 -22q67 -37 67 -119q0 -63 -45 -97q-20 -15 -47 -24q31 -18 45 -48l82 -180h-69l-71 161q-14 31 -33 41q-13 7 -49 7h-95v-209h-64v490zM386 543v-178h104q54 0 80 18q33 23 33 70q0 50 -33 73q-24 17 -82 17h-102zM70 349q0 175 123 298t298 123
t298 -123t123 -298t-123 -298t-298 -123t-298 123t-123 298zM126 349q0 -151 107 -258t258 -107t258 107t107 258t-107 258t-258 107t-258 -107t-107 -258z" />
    <glyph glyph-name="degree" unicode="&#xb0;" horiz-adv-x="475" 
d="M125 544q0 -46 32.5 -79t79.5 -33t79.5 33t32.5 79t-32.5 79t-79.5 33t-79.5 -33t-32.5 -79zM70 544q0 70 48.5 118.5t118.5 48.5q69 0 118.5 -49t49.5 -118t-49.5 -118.5t-118.5 -49.5t-118 49.5t-49 118.5z" />
    <glyph glyph-name="plusminus" unicode="&#xb1;" horiz-adv-x="660" 
d="M70 108h520v-68h-520v68zM70 408h223v152h74v-152h223v-68h-223v-152h-74v152h-223v68z" />
    <glyph glyph-name="acute" unicode="&#xb4;" horiz-adv-x="520" 
d="M303 700h82l-114 -140h-82z" />
    <glyph glyph-name="mu" unicode="&#xb5;" 
d="M70 500h88v-251q0 -89 33 -135q37 -51 106 -51q67 0 97 49q18 30 18 93v295h88v-295q0 -102 -34 -149q-50 -69 -153 -68q-60 2 -100 29q-32 21 -54 55v-272h-89v700z" />
    <glyph glyph-name="paragraph" unicode="&#xb6;" horiz-adv-x="600" 
d="M530 700v-59h-62l-1 -791h-79l1 791h-110v-341q-97 -4 -157 60q-52 54 -52 140q0 81 48 133q39 42 85.5 54.5t109.5 12.5h217z" />
    <glyph glyph-name="periodcentered" unicode="&#xb7;" horiz-adv-x="236" 
d="M70 316h96v-100h-96v100z" />
    <glyph glyph-name="ordmasculine" unicode="&#xba;" horiz-adv-x="388" 
d="M40 543q0 69 39 116q43 52 115 52t115 -52q39 -47 39 -116q0 -70 -39 -115q-43 -52 -115 -52t-115 52q-39 45 -39 115zM99 544q0 -47 18 -78q26 -46 77 -46t77 46q18 31 18 78q0 48 -18 79q-27 46 -77 46t-77 -46q-18 -31 -18 -79z" />
    <glyph glyph-name="guillemotright" unicode="&#xbb;" horiz-adv-x="568" 
d="M298 510l200 -225v-70l-200 -225v108l128 141v22l-128 141v108zM70 510l200 -225v-70l-200 -225v108l128 141v22l-128 141v108z" />
    <glyph glyph-name="questiondown" unicode="&#xbf;" horiz-adv-x="500" 
d="M222 510h88v-14q0 -78 -43 -131q-14 -18 -52.5 -52.5t-45.5 -42.5q-38 -45 -38 -101q0 -55 33 -86q31 -29 82 -29q62 0 97 47q31 43 27 99h90q-3 -80 -47 -139q-58 -79 -168 -77q-86 1 -140 45q-63 51 -65 139q-1 68 46 125q16 19 51 51.5t46 45.5q19 21 28 41.5t10 31.5
t1 33v14zM218 700h96v-100h-96v100z" />
    <glyph glyph-name="AE" unicode="&#xc6;" horiz-adv-x="1014" 
d="M272 700h467l27 -77h-340l79 -220h330l27 -76h-330l90 -249h345l27 -78h-440l-71 213h-296l-71 -213h-96zM328 634l-117 -349h248l-117 349h-14z" />
    <glyph glyph-name="multiply" unicode="&#xd7;" horiz-adv-x="592" 
d="M70 481l49 49l177 -177l177 177l49 -49l-177 -177l177 -177l-49 -49l-177 177l-177 -177l-49 49l177 177z" />
    <glyph glyph-name="ae" unicode="&#xe6;" horiz-adv-x="966" 
d="M522 500v-81q59 97 171 97q110 0 171 -86q52 -73 52 -192v-6h-390v-11q0 -59 29 -104q41 -64 121 -65h4q65 0 104 39q31 31 35 77h92q-11 -66 -59 -118q-63 -66 -154 -66h-3q-115 1 -173 99v-83h-80v83q-51 -93 -164 -95h-4q-100 0 -163 74q-61 72 -61 188t61 188
q63 74 164 74h3q111 -2 164 -93v81h80zM445 252q0 80 -32 129q-41 63 -120 63t-120 -63q-32 -49 -32 -129q0 -81 32 -130q41 -63 120 -63t120 63q32 49 32 130zM678 451q-79 0 -120 -57q-31 -45 -31 -101h302v3q0 55 -31 98q-42 57 -120 57z" />
    <glyph glyph-name="divide" unicode="&#xf7;" horiz-adv-x="660" 
d="M290 540h80v-101h-80v101zM290 161h80v-101h-80v101zM70 338h520v-68h-520v68z" />
    <glyph glyph-name="OE" unicode="&#x152;" horiz-adv-x="1109" 
d="M1046 700v-77h-372v-220h362v-76h-362v-249h380v-78h-468v103q-74 -119 -219 -119h-3q-148 0 -235 115q-74 96 -74 251q0 153 74 251q86 115 235 115h3q82 -1 133.5 -32t85.5 -88v104h460zM148 351q0 -125 50 -198q61 -88 169 -88t169 88q50 73 50 198t-50 198
q-61 89 -169 89t-169 -89q-50 -73 -50 -198z" />
    <glyph glyph-name="oe" unicode="&#x153;" horiz-adv-x="969" 
d="M50 250q0 111 60 184q67 82 175 82h3q38 0 71 -11t53 -25.5t36 -34t22.5 -32t11.5 -24.5q58 127 197 127q118 0 185 -86q55 -71 55 -192v-6h-391v-5q0 -63 30 -110q41 -64 121 -65h4q65 0 104 39q31 31 35 77h92q-12 -69 -59 -118q-64 -66 -170 -66q-50 0 -90 15
t-63 39.5t-33.5 40t-16.5 30.5q-24 -59 -75 -92t-119 -33q-111 0 -178 82q-60 73 -60 184zM679 451q-79 0 -120 -57q-31 -45 -31 -101h302v3q0 55 -31 98q-42 57 -120 57zM141 251q0 -75 28 -124q40 -72 123 -72t123 72q28 49 28 124q0 76 -28 125q-41 73 -123 73t-123 -73
q-28 -49 -28 -125z" />
    <glyph glyph-name="florin" unicode="&#x192;" horiz-adv-x="476" 
d="M54 500h118v16q0 85 43 134q48 56 156 56h13v-69h-18q-60 0 -87 -38q-21 -30 -21 -84v-15h126v-69h-126v-431q0 -109 -42 -158q-48 -55 -149 -55h-13v72h15q54 0 82 38q21 29 21 84v19v431h-118v69z" />
    <glyph glyph-name="circumflex" unicode="&#x2c6;" horiz-adv-x="390" 
d="M144 700h102l114 -160h-82l-83 122l-83 -122h-82z" />
    <glyph glyph-name="anoteleia" unicode="&#x387;" horiz-adv-x="236" 
d="M70 316h96v-100h-96v100z" />
    <glyph glyph-name="Delta" unicode="&#x394;" horiz-adv-x="634" 
d="M250 700h134l230 -622v-78h-594v78zM310 630l-195 -552h404l-195 552h-14z" />
    <glyph glyph-name="Delta" unicode="&#x2206;" horiz-adv-x="634" 
d="M250 700h134l230 -622v-78h-594v78zM310 630l-195 -552h404l-195 552h-14z" />
    <glyph glyph-name="Omega" unicode="&#x3a9;" horiz-adv-x="710" 
d="M60 78h179v92q-86 26 -132 94.5t-47 157.5v4q0 126 83 207q84 82 212 83h7q124 0 203 -78q85 -83 85 -214v-4q-1 -91 -48 -158.5t-131 -91.5v-92h175v-78h-241v219q71 12 110.5 66t40.5 136q0 106 -51 160q-53 57 -150 57q-90 0 -145 -59q-56 -60 -56 -157q0 -12 1 -23.5
t5 -34.5t14 -43t25.5 -41.5t43 -37.5t62.5 -23v-219h-245v78z" />
    <glyph glyph-name="Omega" unicode="&#x2126;" horiz-adv-x="710" 
d="M60 78h179v92q-86 26 -132 94.5t-47 157.5v4q0 126 83 207q84 82 212 83h7q124 0 203 -78q85 -83 85 -214v-4q-1 -91 -48 -158.5t-131 -91.5v-92h175v-78h-241v219q71 12 110.5 66t40.5 136q0 106 -51 160q-53 57 -150 57q-90 0 -145 -59q-56 -60 -56 -157q0 -12 1 -23.5
t5 -34.5t14 -43t25.5 -41.5t43 -37.5t62.5 -23v-219h-245v78z" />
    <glyph glyph-name="mu1" unicode="&#x3bc;" 
d="M70 500h88v-251q0 -89 33 -135q37 -51 106 -51q67 0 97 49q18 30 18 93v295h88v-295q0 -102 -34 -149q-50 -68 -149 -68h-4q-60 2 -100 29q-32 21 -54 55v-272h-89v700z" />
    <glyph glyph-name="pi" unicode="&#x3c0;" horiz-adv-x="580" 
d="M10 500h560v-71h-80v-429h-88v428h-224v-428h-88v427h-80v73z" />
    <glyph glyph-name="afii10023" unicode="&#x401;" horiz-adv-x="620" 
d="M75 700h452v-76h-362v-221h344v-76h-344v-248h370v-79h-460v700zM143 820h94v-70h-94v70zM395 820h94v-70h-94v70z" />
    <glyph glyph-name="afii10051" unicode="&#x402;" horiz-adv-x="790" 
d="M30 700h510v-77h-226v-208h135q135 0 193 -40q78 -56 78 -166q0 -109 -78 -166q-29 -20 -68.5 -30.5t-62 -11.5t-62.5 -1h-10v73h11q91 0 126 24q52 36 52 110t-52 110q-35 24 -127 24h-135v-341h-90v623h-194v77z" />
    <glyph glyph-name="afii10052" unicode="&#x403;" horiz-adv-x="455" 
d="M75 700h400v-76h-310v-624h-90v700zM301 840h86l-97 -110h-86z" />
    <glyph glyph-name="afii10053" unicode="&#x404;" horiz-adv-x="710" 
d="M454 396v-78h-302q0 -94 41 -162q56 -93 167 -94q95 0 149 57q46 48 51 129h95q-10 -101 -76 -173q-84 -91 -214 -91h-4q-152 2 -237 120q-69 98 -69 246q0 150 68 246q83 119 238 120h4q128 0 208 -84q70 -72 77 -176h-94q-3 74 -47 125q-54 60 -148 60
q-113 -1 -170 -95q-38 -62 -38 -145v-5h301z" />
    <glyph glyph-name="afii10054" unicode="&#x405;" horiz-adv-x="640" 
d="M55 224h94q0 -82 52 -125q48 -39 127 -39q72 0 113 30q49 34 50 99q0 64 -54 96q-26 16 -139 46q-3 1 -19.5 5.5t-20.5 5.5t-18.5 5t-20 6.5t-18 7t-19.5 8t-16.5 8.5t-17.5 10.5t-15 11.5q-58 49 -58 128q0 89 70 141q66 49 173 48q106 0 176 -56q80 -64 85 -180h-90
q-4 96 -60 134q-42 29 -115 29q-70 0 -109 -30q-39 -32 -38 -86q1 -51 44 -82q5 -3 10.5 -6t10 -5.5t13 -5.5t13.5 -4.5t17 -5t18.5 -5t22.5 -6t25 -6.5q116 -30 160 -59q85 -55 84 -157q-2 -102 -85 -157q-67 -44 -172 -44q-115 0 -185 55q-40 32 -64 81.5t-24 103.5z" />
    <glyph glyph-name="afii10055" unicode="&#x406;" horiz-adv-x="262" 
d="M85 700h92v-700h-92v700z" />
    <glyph glyph-name="afii10056" unicode="&#x407;" horiz-adv-x="316" 
d="M112 700h92v-700h-92v700zM30 875h88v-98h-88v98zM198 875h88v-98h-88v98z" />
    <glyph glyph-name="afii10057" unicode="&#x408;" horiz-adv-x="305" 
d="M150 700h90v-482q0 -37 -2.5 -62.5t-17 -63t-41.5 -61.5q-53 -47 -159 -47h-20v78h20q73 0 104 38q26 32 26 118v482z" />
    <glyph glyph-name="afii10058" unicode="&#x409;" horiz-adv-x="1020" 
d="M263 700h134l91 -261h234q120 0 186 -49q82 -61 82 -171q0 -115 -85 -174q-40 -29 -85 -37t-109 -8h-167l-207 630h-14l-207 -630h-96zM614 76h107q87 0 126 29q51 36 51 115t-51 115q-39 29 -126 29h-207z" />
    <glyph glyph-name="afii10059" unicode="&#x40a;" horiz-adv-x="1035" 
d="M75 700h90v-291h342v291h90v-291h132q127 0 186 -48q30 -24 49.5 -65t20.5 -92q1 -103 -73 -159q-38 -28 -84 -36.5t-110 -8.5h-211v334h-342v-334h-90v700zM597 334v-258h131q85 0 122 29q44 35 43 100q-2 69 -39 100q-33 29 -126 29h-131z" />
    <glyph glyph-name="afii10060" unicode="&#x40b;" horiz-adv-x="805" 
d="M30 700h510v-77h-225v-259q35 48 82 74q51 29 112 29t110.5 -27t77.5 -72q18 -28 26.5 -64t10 -59.5t1.5 -65.5v-179h-93v179q0 94 -20 133q-17 32 -53 54t-81 21q-37 -1 -72 -18t-57 -42q-44 -53 -44 -148v-179h-90v623h-195v77z" />
    <glyph glyph-name="afii10061" unicode="&#x40c;" horiz-adv-x="625" 
d="M75 700h90v-294h124l202 294h102l-229 -328l231 -372h-106l-200 334h-124v-334h-90v700zM357 840h86l-97 -110h-86z" />
    <glyph glyph-name="afii10062" unicode="&#x40e;" horiz-adv-x="600" 
d="M25 700h96l178 -442h16l174 442h96l-210 -501q-7 -18 -19 -46t-17 -39.5t-13 -29.5t-13.5 -27t-12.5 -19t-15 -18q-35 -34 -90 -34h-12v69h10q16 0 29 7.5t22 22.5t12.5 22t9.5 23l24 59h-20q-6 0 -11 1.5t-9 3t-8 6t-5.5 6.5t-5 8t-4.5 8t-4 9t-3 8zM121 850h80
q4 -25 27 -46q28 -25 73 -25t73 25q23 21 27 46h80q-16 -53 -54 -88q-50 -45 -126 -45t-126 45q-38 35 -54 88z" />
    <glyph glyph-name="afii10145" unicode="&#x40f;" horiz-adv-x="680" 
d="M75 700h90v-624h350v624h90v-700h-222v-200h-86v200h-222v700z" />
    <glyph glyph-name="afii10017" unicode="&#x410;" horiz-adv-x="670" 
d="M268 700h134l248 -700h-96l-72 213h-294l-72 -213h-96zM326 632l-114 -347h246l-114 347h-18z" />
    <glyph glyph-name="afii10018" unicode="&#x411;" horiz-adv-x="625" 
d="M75 700h457v-76h-367v-209h139h9q37 0 59.5 -1t60.5 -10.5t64 -28.5q78 -56 78 -166q0 -109 -78 -166q-29 -20 -68.5 -30.5t-62 -11.5t-62.5 -1h-229v700zM165 341v-268h140q91 0 126 24q50 34 51 110q0 76 -51 110q-36 24 -127 24h-139z" />
    <glyph glyph-name="afii10019" unicode="&#x412;" horiz-adv-x="640" 
d="M80 700h240q41 0 63 -1t54 -9t57 -23q76 -47 76 -139q0 -60 -32 -100.5t-86 -56.5q60 -17 94 -63t34 -112q0 -107 -78 -158q-26 -18 -61.5 -27t-58.5 -10t-62 -1h-240v700zM170 334v-261h150q85 0 116 20q52 32 52 111q0 78 -52 111q-7 5 -14.5 8t-17 5t-15.5 3.5
t-17.5 2t-16 0.5h-18.5h-17h-150zM170 630v-226h150q83 0 114 20q46 29 46 94t-46 93q-32 19 -114 19h-150z" />
    <glyph glyph-name="afii10020" unicode="&#x413;" horiz-adv-x="445" 
d="M75 700h400v-76h-310v-624h-90v700z" />
    <glyph glyph-name="afii10021" unicode="&#x414;" horiz-adv-x="634" 
d="M250 700h134l230 -621v-79h-594v79zM308 632l-193 -553h404l-193 553h-18z" />
    <glyph glyph-name="afii10022" unicode="&#x415;" horiz-adv-x="590" 
d="M75 700h452v-76h-362v-221h344v-76h-344v-248h370v-79h-460v700z" />
    <glyph glyph-name="afii10024" unicode="&#x416;" horiz-adv-x="940" 
d="M22 700h100l182 -298h122v298h88v-298h122l182 298h100l-206 -328l208 -372h-106l-178 338h-122v-338h-88v338h-122l-178 -338h-106l208 372z" />
    <glyph glyph-name="afii10025" unicode="&#x417;" horiz-adv-x="640" 
d="M257 405h63q79 0 112 20q49 30 49 99q-2 64 -49 94q-40 25 -109 25q-71 0 -114 -32q-56 -43 -56 -131h-92q2 60 27.5 108t62.5 76q67 52 172 52q109 0 173 -45q76 -53 77 -142q1 -58 -32 -102t-91 -58q57 -16 96.5 -59t38.5 -119q0 -99 -78 -156q-71 -52 -185 -51
q-106 2 -174 52q-45 33 -69.5 82.5t-23.5 105.5h93q-2 -85 56 -130q44 -34 119 -34t114 27q55 36 55 108q0 75 -58 111q-43 26 -114 26h-63v73z" />
    <glyph glyph-name="afii10026" unicode="&#x418;" horiz-adv-x="680" 
d="M75 700h90v-420l350 250v170h90v-700h-90v440l-350 -250v-190h-90v700z" />
    <glyph glyph-name="afii10027" unicode="&#x419;" horiz-adv-x="680" 
d="M75 700h90v-420l350 250v170h90v-700h-90v440l-350 -250v-190h-90v700zM157 850h80q4 -25 27 -46q28 -25 73 -25t73 25q23 21 27 46h80q-16 -53 -54 -88q-50 -45 -126 -45t-126 45q-38 35 -54 88z" />
    <glyph glyph-name="afii10028" unicode="&#x41a;" horiz-adv-x="615" 
d="M75 700h90v-294h124l202 294h102l-229 -328l231 -372h-106l-200 334h-124v-334h-90v700z" />
    <glyph glyph-name="afii10029" unicode="&#x41b;" horiz-adv-x="660" 
d="M261 700h138l241 -700h-96l-205 632h-18l-205 -632h-96z" />
    <glyph glyph-name="afii10030" unicode="&#x41c;" horiz-adv-x="790" 
d="M75 700h94l226 -285l226 285h94v-700h-88v594l-232 -295l-232 295v-594h-88v700z" />
    <glyph glyph-name="afii10031" unicode="&#x41d;" horiz-adv-x="680" 
d="M75 700h90v-293h350v293h90v-700h-90v329h-350v-329h-90v700z" />
    <glyph glyph-name="afii10032" unicode="&#x41e;" horiz-adv-x="730" 
d="M55 350q0 158 80 259q86 107 230 107t230 -107q80 -101 80 -259t-80 -259q-86 -107 -230 -107t-230 107q-80 101 -80 259zM148 352q0 -126 50 -200q61 -90 167 -90t167 90q50 74 50 200q0 125 -50 199q-61 90 -167 90t-167 -90q-50 -74 -50 -199z" />
    <glyph glyph-name="afii10033" unicode="&#x41f;" horiz-adv-x="680" 
d="M75 700h530v-700h-90v624h-350v-624h-90v700z" />
    <glyph glyph-name="afii10034" unicode="&#x420;" horiz-adv-x="610" 
d="M80 700h202q44 0 68.5 -1.5t61.5 -12t66 -31.5q82 -59 82 -174t-82 -174q-29 -21 -66 -31.5t-61.5 -12t-68.5 -1.5h-112v-262h-90v700zM170 628v-292h118q91 0 129 29q50 36 50 117t-50 117q-38 29 -129 29h-118z" />
    <glyph glyph-name="afii10035" unicode="&#x421;" horiz-adv-x="710" 
d="M561 248h94q-10 -102 -76 -176q-81 -89 -211 -88q-153 1 -242 122q-71 97 -71 244t71 244q90 122 242 122q126 0 206 -84q68 -70 76 -176h-93q-3 74 -48 125q-52 60 -140 60q-111 0 -173 -95q-47 -75 -47 -195q0 -122 47 -195q61 -94 173 -94q84 0 139 57q51 53 53 129z
" />
    <glyph glyph-name="afii10036" unicode="&#x422;" 
d="M20 700h520v-76h-216v-624h-90v624h-214v76z" />
    <glyph glyph-name="afii10037" unicode="&#x423;" horiz-adv-x="595" 
d="M25 700h96l178 -442h16l174 442h96l-210 -501q-7 -18 -19 -46t-17 -39.5t-13 -29.5t-13.5 -27t-12.5 -19t-15 -18q-35 -34 -90 -34h-12v69h10q16 0 29 7.5t22 22.5t12.5 22t9.5 23l24 59h-20q-6 0 -11 1.5t-9 3t-8 6t-5.5 6.5t-5 8t-4.5 8t-4 9t-3 8z" />
    <glyph glyph-name="afii10038" unicode="&#x424;" horiz-adv-x="950" 
d="M149 352q0 -134 71 -207q35 -37 90.5 -60t121.5 -22v577q-66 1 -122 -22t-90 -59q-71 -73 -71 -207zM801 352q0 134 -71 207q-34 36 -90 59t-122 22v-577q66 -1 121.5 22t90.5 60q71 73 71 207zM55 350q0 168 110 268q62 55 138 74.5t170 19.5q206 0 312 -94
q110 -98 110 -268t-110 -268q-107 -94 -310 -94q-55 0 -97 4.5t-104 27.5t-109 66q-110 100 -110 264z" />
    <glyph glyph-name="afii10039" unicode="&#x425;" horiz-adv-x="640" 
d="M32 700h102l182 -296h8l182 296h102l-210 -329l222 -371h-104l-192 332h-8l-192 -332h-104l222 371z" />
    <glyph glyph-name="afii10040" unicode="&#x426;" horiz-adv-x="700" 
d="M75 700h90v-624h350v624h90v-623h80l-30 -77h-580v700z" />
    <glyph glyph-name="afii10041" unicode="&#x427;" horiz-adv-x="630" 
d="M55 700h90v-205q0 -95 20 -133q14 -29 45.5 -51t81.5 -23q82 -1 129 58q44 54 44 149v205h90v-700h-90v308q-28 -49 -81 -75q-50 -24 -105 -24q-124 0 -185 97q-39 62 -39 189v205z" />
    <glyph glyph-name="afii10042" unicode="&#x428;" horiz-adv-x="1020" 
d="M75 700h90v-622h301v622h88v-622h301v622h90v-700h-870v700z" />
    <glyph glyph-name="afii10043" unicode="&#x429;" horiz-adv-x="1040" 
d="M75 700h90v-622h301v622h88v-622h301v622h90v-622h80l-30 -78h-920v700z" />
    <glyph glyph-name="afii10044" unicode="&#x42a;" horiz-adv-x="660" 
d="M20 700h190v-261h132q124 0 186 -44q82 -59 82 -175q0 -117 -82 -176q-62 -44 -186 -44h-222v626h-100v74zM210 364v-288h131h11h13.5t13.5 0.5t15 1t14.5 2t16 3.5t14 4.5t15 6.5t13.5 9q50 37 50 117t-50 117q-6 5 -13.5 9t-15 6.5t-14 4.5t-16 3.5t-14.5 2t-15 1
t-13.5 0.5h-13.5h-11h-131z" />
    <glyph glyph-name="afii10045" unicode="&#x42b;" horiz-adv-x="830" 
d="M665 700h90v-700h-90v700zM75 700h90v-261h132q124 0 186 -44q82 -59 82 -175q0 -117 -82 -176q-62 -44 -186 -44h-222v700zM165 364v-288h131h11h13.5t13.5 0.5t15 1t14.5 2t16 3.5t14 4.5t15 6.5t13.5 9q50 37 50 117t-50 117q-6 5 -13.5 9t-15 6.5t-14 4.5t-16 3.5
t-14.5 2t-15 1t-13.5 0.5h-13.5h-11h-131z" />
    <glyph glyph-name="afii10046" unicode="&#x42c;" horiz-adv-x="615" 
d="M75 700h90v-261h132q124 0 186 -44q82 -59 82 -175q0 -117 -82 -176q-62 -44 -186 -44h-222v700zM165 364v-288h131h11h13.5t13.5 0.5t15 1t14.5 2t16 3.5t14 4.5t15 6.5t13.5 9q50 37 50 117t-50 117q-6 5 -13.5 9t-15 6.5t-14 4.5t-16 3.5t-14.5 2t-15 1t-13.5 0.5
h-13.5h-11h-131z" />
    <glyph glyph-name="afii10047" unicode="&#x42d;" horiz-adv-x="710" 
d="M256 396h301q2 84 -38 150q-57 94 -170 95q-94 0 -148 -60q-44 -51 -47 -125h-94q7 104 77 176q82 85 212 84q155 -1 238 -120q68 -96 68 -246q0 -148 -69 -246q-85 -118 -237 -120q-137 -1 -220 89q-65 72 -74 175h95q5 -81 51 -129q54 -57 149 -57q111 1 167 94
q41 68 41 162h-302v78z" />
    <glyph glyph-name="afii10048" unicode="&#x42e;" horiz-adv-x="960" 
d="M75 700h90v-306h132q7 127 78 215q86 107 225 107t225 -107q80 -98 80 -259t-80 -259q-86 -107 -225 -107t-225 107q-75 94 -79 229h-131v-320h-90v700zM389 352q0 -127 49 -200q29 -42 71.5 -66t90.5 -24t90.5 24t71.5 66q49 73 49 200q0 126 -49 199q-29 42 -71.5 66
t-90.5 24t-90.5 -24t-71.5 -66q-49 -73 -49 -199z" />
    <glyph glyph-name="afii10049" unicode="&#x42f;" horiz-adv-x="650" 
d="M570 700v-700h-90v298h-123q-52 0 -70 -9q-31 -16 -49 -60l-99 -229h-99l118 256q27 58 70 70q-49 9 -82 36q-59 46 -60 137q-1 116 95 170q26 15 59.5 22t53.5 8t61 1h215zM480 626h-138h-14.5h-17t-16 -0.5t-18 -2.5t-16.5 -4.5t-18.5 -7t-16.5 -10.5q-47 -34 -47 -104
q0 -66 47 -101q10 -7 21.5 -12.5t19 -8t21 -4t18 -1.5h19h16.5h140v256z" />
    <glyph glyph-name="afii10065" unicode="&#x430;" horiz-adv-x="600" 
d="M530 500v-500h-83l-5 83q-54 -95 -169 -97q-99 -1 -162 74q-61 73 -61 190t61 190q63 75 162 74q116 -2 169 -95l5 81h83zM445 252q0 84 -30 130q-43 66 -122 66q-77 0 -119 -63q-33 -49 -33 -133t33 -134q42 -63 119 -63q79 0 122 66q30 47 30 131z" />
    <glyph glyph-name="afii10066" unicode="&#x431;" horiz-adv-x="590" 
d="M448 245q0 83 -29 126q-41 62 -120 62q-78 0 -119 -62q-31 -45 -31 -126q0 -82 31 -127q41 -62 119 -62q79 0 120 62q29 44 29 127zM478 700v-70h-154q-28 0 -44.5 -1.5t-44 -12.5t-45.5 -33q-39 -47 -39 -145v-23q51 86 162 86q104 0 170 -78q57 -69 57 -180
q0 -108 -56 -178q-68 -81 -185 -81q-125 0 -187 89q-52 73 -52 216v73q0 185 63 263q19 23 42.5 38t40 22.5t47.5 11t40.5 3.5h41.5h143z" />
    <glyph glyph-name="afii10067" unicode="&#x432;" horiz-adv-x="570" 
d="M60 285v147q0 69 8.5 117.5t37.5 87.5q59 79 176 79q95 0 151 -46q64 -51 63 -142q-2 -59 -33 -101q-29 -38 -74 -53q54 -14 87 -52q44 -48 44 -127q0 -99 -67 -158q-60 -53 -164 -53q-125 0 -184 88q-45 66 -45 213zM230 403h54q62 0 95 35q30 32 30 88q0 58 -33 89
q-35 33 -94 32q-82 -1 -114 -63q-20 -37 -20 -152v-147v-10q0 -109 24 -153q35 -64 117 -66q70 -1 107 42q32 36 32 104q0 66 -30 98q-16 17 -37.5 25.5t-34 9t-42.5 0.5h-54v68z" />
    <glyph glyph-name="afii10068" unicode="&#x433;" horiz-adv-x="520" 
d="M381 168h89q-4 -92 -66 -141q-58 -46 -160 -45q-77 0 -127 30q-64 39 -67 116q-1 71 57 112q30 21 134 49q80 22 99 36q29 19 29 54q0 38 -33 59q-30 18 -74 18q-53 0 -81 -20q-47 -34 -45 -100h-86q3 100 79 149q50 33 132 33q88 -1 136 -34q57 -39 58 -110
q0 -56 -34 -88q-27 -27 -104 -50q-33 -10 -70.5 -20t-51.5 -16q-56 -24 -56 -72q0 -42 35 -64q27 -17 78 -17q57 0 90 26q41 32 39 95z" />
    <glyph glyph-name="afii10069" unicode="&#x434;" horiz-adv-x="600" 
d="M530 500v-500q0 -104 -44 -156q-51 -60 -151 -60h-15v67h15q27 0 50.5 12.5t36.5 31.5q20 30 20 105v83q-54 -95 -169 -97q-99 -1 -162 74q-61 73 -61 190t61 190q63 75 162 74q116 -2 169 -95l4 81h84zM445 252q0 84 -30 130q-43 66 -122 66q-77 0 -119 -63
q-32 -49 -32 -133q0 -85 32 -134q42 -63 119 -63q79 0 122 66q30 47 30 131z" />
    <glyph glyph-name="afii10070" unicode="&#x435;" horiz-adv-x="570" 
d="M286 451q-74 0 -115 -56q-31 -42 -31 -101h292q1 59 -30 101q-41 56 -116 56zM429 162h87q-13 -67 -58 -112q-64 -66 -169 -66q-114 0 -180 80q-59 71 -59 186q0 114 59 186q65 80 176 80q119 0 184 -86q51 -67 51 -180v-17h-382q-2 -71 28 -118q39 -63 123 -63
q65 0 104 39q30 29 36 71z" />
    <glyph glyph-name="afii10072" unicode="&#x436;" horiz-adv-x="730" 
d="M23 500h90l121 -209h89v209h84v-209h89l119 209h92l-142 -234l145 -266h-94l-120 233h-89v-233h-84v233h-89l-120 -233h-94l145 266z" />
    <glyph glyph-name="afii10073" unicode="&#x437;" horiz-adv-x="520" 
d="M221 290h34q64 0 88 17q29 20 29 62q0 46 -35 67q-28 17 -77 17q-44 0 -75 -19q-43 -27 -42 -90h-88q5 95 80 142q53 32 127 32q77 0 128 -30q68 -41 68 -115q0 -43 -29 -76q-23 -25 -55 -35q39 -13 65 -41q31 -34 31 -83q0 -80 -68 -123q-53 -33 -140 -33q-83 0 -135 36
q-73 51 -77 140h89q0 -54 38 -83q33 -25 82 -25q51 0 83 20q38 25 38 72q0 43 -33 65q-26 18 -92 18h-34v65z" />
    <glyph glyph-name="afii10074" unicode="&#x438;" 
d="M60 500h91v-276q0 -78 18 -110q29 -52 95 -52q68 -1 107 52q31 43 31 135v251h88v-500h-85l-4 80q-21 -39 -57 -62q-45 -30 -103 -30q-98 0 -145 70q-36 52 -36 175v267z" />
    <glyph glyph-name="afii10075" unicode="&#x439;" 
d="M60 500h91v-276q0 -78 18 -110q29 -52 95 -52q68 -1 107 52q31 43 31 135v251h88v-500h-85l-4 80q-21 -39 -57 -62q-45 -30 -103 -30q-98 0 -145 70q-36 52 -36 175v267zM114 700h77q2 -35 20 -58q24 -31 69 -31t69 31q18 23 20 58h77q-5 -67 -50 -110q-47 -45 -116 -45
t-116 45q-45 43 -50 110z" />
    <glyph glyph-name="afii10076" unicode="&#x43a;" horiz-adv-x="510" 
d="M70 500h88v-205h99l137 205h93l-162 -234l165 -266h-100l-134 230h-98v-230h-88v500z" />
    <glyph glyph-name="afii10077" unicode="&#x43b;" horiz-adv-x="520" 
d="M192 500h136l172 -500h-94l-138 438h-16l-138 -438h-94z" />
    <glyph glyph-name="afii10078" unicode="&#x43c;" horiz-adv-x="650" 
d="M70 500h94l161 -200l161 200h94v-500h-88v407l-167 -207l-167 207v-407h-88v500z" />
    <glyph glyph-name="afii10079" unicode="&#x43d;" 
d="M70 500h88v-203h244v203h88v-500h-88v228h-244v-228h-88v500z" />
    <glyph glyph-name="afii10080" unicode="&#x43e;" horiz-adv-x="590" 
d="M50 250q0 113 62 185q69 81 183 81t183 -81q62 -72 62 -185t-62 -185q-69 -81 -183 -81t-183 81q-62 72 -62 185zM142 252q0 -81 29 -127q43 -69 125 -69q81 0 123 69q29 46 29 127q0 80 -29 126q-42 69 -124 69t-124 -69q-29 -46 -29 -126z" />
    <glyph glyph-name="afii10081" unicode="&#x43f;" 
d="M70 500h85l4 -80q21 39 57 62q45 30 103 30q98 0 145 -70q36 -52 36 -175v-267h-91v276q0 78 -18 110q-29 52 -95 52q-68 0 -106 -52q-15 -20 -22.5 -45t-8.5 -41.5t-1 -48.5v-251h-88v500z" />
    <glyph glyph-name="afii10082" unicode="&#x440;" horiz-adv-x="600" 
d="M70 500h85l3 -81q53 93 169 95q99 1 162 -74q61 -73 61 -190t-61 -190q-63 -75 -162 -74q-115 2 -169 97v-283h-88v700zM155 252q0 -84 30 -131q43 -66 122 -66q77 0 119 63q32 49 32 134q0 84 -32 133q-42 63 -119 63q-79 0 -122 -66q-30 -46 -30 -130z" />
    <glyph glyph-name="afii10083" unicode="&#x441;" 
d="M418 181h92q-10 -83 -66 -137q-60 -60 -156 -60q-114 0 -181 85q-57 73 -57 181t57 181q68 85 180 85q98 0 157 -59q55 -52 61 -136h-90q-1 48 -32 84q-37 42 -98 42q-74 0 -114 -66q-29 -48 -29 -130q0 -80 29 -128q39 -65 114 -67q60 -1 99 41q31 34 34 84z" />
    <glyph glyph-name="afii10084" unicode="&#x442;" horiz-adv-x="420" 
d="M20 500h380v-70h-146v-430h-88v430h-146v70z" />
    <glyph glyph-name="afii10085" unicode="&#x443;" horiz-adv-x="530" 
d="M20 500h94l151 -432h15l136 432h94l-189 -560q-3 -8 -9 -26.5t-8.5 -25.5t-7.5 -20t-8.5 -19.5t-8.5 -14.5t-11 -14q-34 -36 -89 -36h-10v72q26 -2 41 13q14 12 29 61l22 70h-18q-36 0 -53 44z" />
    <glyph glyph-name="afii10086" unicode="&#x444;" horiz-adv-x="764" 
d="M144 252q0 -107 65 -156q52 -40 130 -37v386q-79 0 -128 -37q-67 -51 -67 -156zM620 252q0 106 -67 156q-49 37 -128 37v-386q79 0 128 37q67 50 67 156zM50 250q0 135 104 205q75 52 225 52q155 0 231 -52q104 -70 104 -205q0 -134 -104 -205q-79 -54 -185 -51v-194h-86
v194q-105 -5 -185 51q-104 73 -104 205z" />
    <glyph glyph-name="afii10087" unicode="&#x445;" horiz-adv-x="510" 
d="M30 500h94l127 -203h8l127 203h94l-155 -235l165 -265h-98l-133 228h-8l-133 -228h-98l165 265z" />
    <glyph glyph-name="afii10088" unicode="&#x446;" horiz-adv-x="590" 
d="M60 500h90v-281q0 -76 15 -104q29 -54 96 -54q66 0 101 53q28 41 28 113v273h90v-362q0 -50 16 -72q26 -35 74 -32v-234h-89v200q-39 3 -63 30q-17 20 -20 48q-16 -31 -45 -54q-48 -38 -116 -38q-101 0 -146 70q-15 23 -22 54.5t-8 51.5t-1 62v276z" />
    <glyph glyph-name="afii10089" unicode="&#x447;" horiz-adv-x="510" 
d="M40 500h88v-138q0 -68 17 -95q26 -43 86 -43t93 42q28 35 28 98v136h88v-500h-88v212q-53 -63 -138 -63q-99 0 -146 75q-14 21 -20.5 49t-7 45t-0.5 53v129z" />
    <glyph glyph-name="afii10090" unicode="&#x448;" horiz-adv-x="827" 
d="M60 500h91v-288q0 -80 11 -103q23 -49 89 -49q64 0 95 50q20 33 20 102v288h88v-288q0 -77 12 -103q23 -47 77 -49q64 -2 99 54q27 42 27 135v251h88v-500h-85l-4 78q-19 -37 -50 -60q-43 -32 -97 -32q-47 -1 -84 24.5t-53 71.5q-20 -45 -60.5 -69.5t-90.5 -26.5
q-101 -3 -148 76q-13 22 -18.5 52.5t-6 45.5t-0.5 56v284z" />
    <glyph glyph-name="afii10091" unicode="&#x449;" horiz-adv-x="870" 
d="M60 500h90v-285q0 -78 14 -104q24 -45 86 -45q69 0 99 55q18 34 18 92v287h86v-285q0 -69 14 -97q25 -52 89 -52q57 0 91 52q23 35 23 97v285h90v-365q0 -50 18 -70q24 -29 72 -29v-236h-89v200q-31 4 -56 27q-22 22 -25 52q-14 -32 -42 -55q-47 -37 -106 -36
q-65 1 -110 43q-22 21 -31 48q-48 -91 -159 -91q-94 0 -140 65q-16 22 -23.5 57t-8 52t-0.5 54v284z" />
    <glyph glyph-name="afii10092" unicode="&#x44a;" horiz-adv-x="590" 
d="M0 570h111q35 0 52 -17t17 -53v-149q51 78 147 78q93 0 151 -60q62 -65 62 -162q0 -98 -62 -162q-60 -61 -164 -61q-118 0 -177 83q-8 11 -14.5 23t-11 25t-8 23.5t-5.5 26t-3.5 23.5t-2 25t-0.5 22.5v23v20.5v221h-92v70zM446 209q0 64 -30 103q-37 48 -103 48
q-63 0 -101 -48q-32 -40 -32 -103t32 -103q38 -48 101 -48q66 0 103 48q30 39 30 103z" />
    <glyph glyph-name="afii10093" unicode="&#x44b;" horiz-adv-x="760" 
d="M602 500h88v-500h-88v500zM60 560h88v-209q51 78 147 78q93 0 151 -60q62 -65 62 -162q0 -98 -62 -162q-60 -61 -164 -61q-118 0 -177 83q-8 11 -14.5 23t-11 25t-8 23.5t-5.5 26t-3.5 23.5t-2 25t-0.5 22.5v23v20.5v281zM414 209q0 64 -30 103q-37 48 -103 48
q-63 0 -101 -48q-32 -40 -32 -103t32 -103q38 -48 101 -48q66 0 103 48q30 39 30 103z" />
    <glyph glyph-name="afii10094" unicode="&#x44c;" horiz-adv-x="558" 
d="M60 560h88v-209q51 78 147 78q93 0 151 -60q62 -65 62 -162q0 -98 -62 -162q-60 -61 -164 -61q-118 0 -177 83q-8 11 -14.5 23t-11 25t-8 23.5t-5.5 26t-3.5 23.5t-2 25t-0.5 22.5v23v20.5v281zM414 209q0 64 -30 103q-37 48 -103 48q-63 0 -101 -48q-32 -40 -32 -103
t32 -103q38 -48 101 -48q66 0 103 48q30 39 30 103z" />
    <glyph glyph-name="afii10095" unicode="&#x44d;" horiz-adv-x="570" 
d="M224 286h205q0 55 -26 95q-41 66 -123 66q-65 0 -102 -43q-29 -33 -34 -83h-89q7 84 65 138q61 57 158 57q124 0 188 -84q54 -69 54 -182t-54 -182q-65 -84 -188 -84q-100 0 -162 58q-58 54 -66 139h91q5 -52 34 -84q37 -42 105 -41q86 1 125 68q24 39 24 94h-205v68z
" />
    <glyph glyph-name="afii10096" unicode="&#x44e;" horiz-adv-x="800" 
d="M70 500h88v-204h108q6 79 56 139q67 81 183 81q113 0 183 -82q62 -72 62 -184t-62 -184q-70 -82 -183 -82q-116 0 -183 81q-58 70 -57 165h-107v-230h-88v500zM351 252q0 -78 30 -128q42 -68 125 -68q82 0 122 67q30 50 30 129q0 77 -30 127q-41 68 -123 68
q-83 0 -124 -68q-30 -48 -30 -127z" />
    <glyph glyph-name="afii10097" unicode="&#x44f;" horiz-adv-x="510" 
d="M440 500v-500h-86v204h-115l-113 -204h-106l132 213q-42 5 -71 32q-42 38 -41 107q1 79 60 119q8 5 16.5 9.5t19 7.5t18 5t20 3.5t18.5 2t19.5 1t17 0.5h17.5h15h179zM354 436h-101q-67 0 -89 -15q-34 -24 -34 -70t34 -70q22 -15 89 -15h101v170z" />
    <glyph glyph-name="afii10071" unicode="&#x451;" horiz-adv-x="570" 
d="M286 451q-74 0 -115 -56q-31 -42 -31 -101h292q1 59 -30 101q-41 56 -116 56zM429 162h87q-13 -67 -58 -112q-64 -66 -169 -66q-114 0 -180 80q-59 71 -59 186q0 114 59 186q65 80 176 80q119 0 184 -86q51 -67 51 -180v-17h-382q-2 -71 28 -118q39 -63 123 -63
q65 0 104 39q30 29 36 71zM119 700h82v-105h-82v105zM370 700h82v-105h-82v105z" />
    <glyph glyph-name="afii10099" unicode="&#x452;" horiz-adv-x="640" 
d="M155 700h89v-121h206v-64h-206v-188q23 38 57 60q45 30 104 30q104 0 149 -68q13 -20 19 -51.5t6.5 -46.5t0.5 -51v-200q0 -34 -2 -56t-12 -52t-30 -51q-51 -57 -155 -57h-15v72h12q64 0 93 40q21 29 21 104v200q0 69 -13 93q-27 49 -97 49q-71 0 -108 -51
q-31 -43 -31 -135v-156h-88v515h-135v64h135v121z" />
    <glyph glyph-name="afii10100" unicode="&#x453;" horiz-adv-x="520" 
d="M381 168h89q-4 -92 -66 -141q-58 -46 -160 -45q-77 0 -127 30q-64 39 -67 116q-1 71 57 112q30 21 134 49q80 22 99 36q29 19 29 54q0 38 -33 59q-30 18 -74 18q-53 0 -81 -20q-47 -34 -45 -100h-86q3 100 79 149q50 33 132 33q88 -1 136 -34q57 -39 58 -110
q0 -56 -34 -88q-27 -27 -104 -50q-33 -10 -70.5 -20t-51.5 -16q-56 -24 -56 -72q0 -42 35 -64q27 -17 78 -17q57 0 90 26q41 32 39 95zM303 700h82l-114 -140h-82z" />
    <glyph glyph-name="afii10101" unicode="&#x454;" horiz-adv-x="570" 
d="M346 286v-68h-205q0 -55 24 -94q39 -67 125 -68q68 -1 105 41q29 32 34 84h91q-8 -85 -66 -139q-62 -58 -162 -58q-123 0 -188 84q-54 69 -54 182t54 182q64 84 188 84q97 0 158 -57q58 -54 65 -138h-89q-5 50 -34 83q-37 43 -102 43q-82 0 -123 -66q-26 -40 -26 -95h205
z" />
    <glyph glyph-name="afii10102" unicode="&#x455;" horiz-adv-x="520" 
d="M50 168h89q-2 -63 39 -95q33 -26 90 -26q51 0 78 17q35 22 35 64q0 50 -56 72q-11 5 -24.5 8.5t-40.5 11t-57 16.5q-77 23 -104 50q-35 33 -34 88q1 69 59 109q51 35 135 35q82 0 133 -33q76 -49 78 -149h-86q2 69 -45 100q-30 20 -81 20q-45 0 -74 -18q-33 -21 -33 -59
q0 -33 27 -54q18 -14 101 -36q104 -28 134 -49q58 -41 57 -112q-2 -76 -68 -116q-49 -30 -131 -30q-98 0 -155 45q-62 49 -66 141z" />
    <glyph glyph-name="afii10103" unicode="&#x456;" horiz-adv-x="248" 
d="M80 700h88v-98h-88v98zM80 500h88v-500h-88v500z" />
    <glyph glyph-name="afii10104" unicode="&#x457;" horiz-adv-x="296" 
d="M104 500h88v-500h-88v500zM20 700h88v-98h-88v98zM188 700h88v-98h-88v98z" />
    <glyph glyph-name="afii10105" unicode="&#x458;" horiz-adv-x="248" 
d="M80 700h88v-98h-88v98zM80 500h88v-700h-88v700z" />
    <glyph glyph-name="afii10106" unicode="&#x459;" horiz-adv-x="780" 
d="M195 500h130l69 -196h155h10q32 0 49.5 -1t44.5 -9.5t50 -25.5q57 -44 57 -116q0 -79 -60 -120q-22 -15 -53 -22.5t-50 -8.5t-58 -1h-133l-141 431h-10l-141 -431h-94zM415 242l63 -180h72q61 0 86 18q34 25 34 72q0 48 -34 71q-26 19 -86 19h-135z" />
    <glyph glyph-name="afii10107" unicode="&#x45a;" horiz-adv-x="846" 
d="M70 500h88v-203h244v203h88v-196h105h10q32 0 49.5 -1t44.5 -9.5t50 -25.5q57 -44 57 -116q0 -79 -60 -120q-22 -15 -53 -22.5t-50 -8.5t-58 -1h-183v229h-244v-229h-88v500zM490 62h106q61 0 86 18q34 25 34 72q0 48 -34 71q-26 19 -86 19h-106v-180z" />
    <glyph glyph-name="afii10108" unicode="&#x45b;" horiz-adv-x="640" 
d="M150 700h89v-121h211v-64h-211v-188q23 38 57 60q45 30 104 30q102 0 149 -68q31 -46 31 -149v-200h-91v200q0 67 -15 93q-27 49 -97 49q-71 0 -108 -51q-31 -43 -31 -135v-156h-88v515h-130v64h130v121z" />
    <glyph glyph-name="afii10109" unicode="&#x45c;" horiz-adv-x="510" 
d="M70 500h88v-205h99l137 205h93l-162 -234l165 -266h-100l-134 230h-98v-230h-88v500zM316 700h82l-114 -140h-82z" />
    <glyph glyph-name="afii10110" unicode="&#x45e;" horiz-adv-x="520" 
d="M20 500h94l151 -432h15l136 432h94l-189 -560q-3 -8 -9 -26.5t-8.5 -25.5t-7.5 -20t-8.5 -19.5t-8.5 -14.5t-11 -14q-34 -36 -89 -36h-10v72q26 -2 41 13q14 12 29 61l22 70h-18q-36 0 -53 44zM100 700h77q2 -35 20 -58q24 -31 69 -31t69 31q18 23 20 58h77
q-5 -67 -50 -110q-47 -45 -116 -45t-116 45q-45 43 -50 110z" />
    <glyph glyph-name="afii10193" unicode="&#x45f;" horiz-adv-x="570" 
d="M70 500h91v-422h248v422h91v-500h-172v-200h-86v200h-172v500z" />
    <glyph glyph-name="afii10050" unicode="&#x490;" horiz-adv-x="455" 
d="M75 700h318v140h82v-218h-310v-622h-90v700z" />
    <glyph glyph-name="afii10098" unicode="&#x491;" horiz-adv-x="390" 
d="M70 500h232v155h78v-225h-219v-430h-91v500z" />
    <glyph glyph-name="cyrAE" unicode="&#x4d4;" horiz-adv-x="1014" 
d="M272 700h467l27 -77h-340l79 -220h330l27 -76h-330l90 -249h345l27 -78h-440l-71 213h-296l-71 -213h-96zM328 634l-117 -349h248l-117 349h-14z" />
    <glyph glyph-name="cyrae" unicode="&#x4d5;" horiz-adv-x="966" 
d="M522 500v-81q59 97 171 97q110 0 171 -86q52 -73 52 -192v-6h-390v-11q0 -59 29 -104q41 -64 121 -65h4q65 0 104 39q31 31 35 77h92q-11 -66 -59 -118q-63 -66 -154 -66h-3q-115 1 -173 99v-83h-80v83q-51 -93 -164 -95h-4q-100 0 -163 74q-61 72 -61 188t61 188
q63 74 164 74h3q111 -2 164 -93v81h80zM445 252q0 80 -32 129q-41 63 -120 63t-120 -63q-32 -49 -32 -129q0 -81 32 -130q41 -63 120 -63t120 63q32 49 32 130zM678 451q-79 0 -120 -57q-31 -45 -31 -101h302v3q0 55 -31 98q-42 57 -120 57z" />
    <glyph glyph-name="endash" unicode="&#x2013;" horiz-adv-x="660" 
d="M70 302h520v-63h-520v63z" />
    <glyph glyph-name="emdash" unicode="&#x2014;" horiz-adv-x="900" 
d="M0 302h900v-68h-900v68z" />
    <glyph glyph-name="quoteleft" unicode="&#x2018;" horiz-adv-x="249" 
d="M119 700h60q-27 -38 -42 -77q-14 -36 -14 -73h43v-100h-96v84q0 50 13 92q12 38 36 74z" />
    <glyph glyph-name="quoteright" unicode="&#x2019;" horiz-adv-x="249" 
d="M83 700h96v-84q0 -50 -13 -92q-12 -38 -36 -74h-60q27 38 42 77q14 36 14 73h-43v100z" />
    <glyph glyph-name="quotesinglbase" unicode="&#x201a;" horiz-adv-x="249" 
d="M83 100h96v-84q0 -50 -13 -92q-12 -38 -36 -74h-60q27 38 42 77q14 36 14 73h-43v100z" />
    <glyph glyph-name="quotedblleft" unicode="&#x201c;" horiz-adv-x="445" 
d="M266 700h96v-100h-43q0 -37 14 -73q15 -39 42 -77h-60q-25 42 -36 74q-13 39 -13 92v84zM70 700h96v-100h-43q0 -37 14 -73q15 -39 42 -77h-60q-24 36 -36 74q-13 42 -13 92v84z" />
    <glyph glyph-name="quotedblright" unicode="&#x201d;" horiz-adv-x="445" 
d="M83 700h96v-84q0 -53 -13 -92q-11 -32 -36 -74h-60q27 38 42 77q14 36 14 73h-43v100zM279 700h96v-84q0 -50 -13 -92q-12 -38 -36 -74h-60q27 38 42 77q14 36 14 73h-43v100z" />
    <glyph glyph-name="quotedblbase" unicode="&#x201e;" horiz-adv-x="445" 
d="M83 100h96v-84q0 -53 -13 -92q-11 -32 -36 -74h-60q27 38 42 77q14 36 14 73h-43v100zM279 100h96v-84q0 -50 -13 -92q-12 -38 -36 -74h-60q27 38 42 77q14 36 14 73h-43v100z" />
    <glyph glyph-name="dagger" unicode="&#x2020;" horiz-adv-x="566" 
d="M240 750h86v-206h170v-78h-170v-666h-86v666h-170v78h170v206z" />
    <glyph glyph-name="daggerdbl" unicode="&#x2021;" horiz-adv-x="566" 
d="M240 750h86v-206h170v-78h-170v-339h170v-80h-170v-247h-86v247h-170v80h170v339h-170v78h170v206z" />
    <glyph glyph-name="bullet" unicode="&#x2022;" horiz-adv-x="300" 
d="M70 271q0 37 25 58.5t55 21.5t55 -21.5t25 -58.5q0 -35 -23 -57.5t-57 -22.5t-57 22.5t-23 57.5z" />
    <glyph glyph-name="ellipsis" unicode="&#x2026;" horiz-adv-x="628" 
d="M70 100h96v-100h-96v100zM266 100h96v-100h-96v100zM462 100h96v-100h-96v100z" />
    <glyph glyph-name="perthousand" unicode="&#x2030;" horiz-adv-x="1489" 
d="M713 700h90l-478 -700h-90zM607 200q0 87 43 142q51 66 138 66t138 -66q43 -55 43 -142q0 -88 -43 -143q-51 -66 -138 -66t-138 66q-43 55 -43 143zM683 200q0 -59 22 -95q29 -48 83 -48t83 48q22 36 22 95t-22 95q-29 49 -83 49t-83 -49q-22 -36 -22 -95zM70 501
q0 87 43 142q51 66 138 66t138 -66q43 -55 43 -142q0 -88 -43 -143q-51 -66 -138 -66t-138 66q-43 55 -43 143zM146 501q0 -59 22 -95q29 -48 83 -48t83 48q22 36 22 95t-22 95q-29 49 -83 49t-83 -49q-22 -36 -22 -95zM1057 200q0 87 43 142q51 66 138 66t138 -66
q43 -55 43 -142q0 -88 -43 -143q-51 -66 -138 -66t-138 66q-43 55 -43 143zM1133 200q0 -59 22 -95q29 -48 83 -48t83 48q22 36 22 95t-22 95q-29 49 -83 49t-83 -49q-22 -36 -22 -95z" />
    <glyph glyph-name="guilsinglleft" unicode="&#x2039;" horiz-adv-x="340" 
d="M70 285l200 225v-108l-128 -141v-22l128 -141v-108l-200 225v70z" />
    <glyph glyph-name="guilsinglright" unicode="&#x203a;" horiz-adv-x="340" 
d="M70 510l200 -225v-70l-200 -225v108l128 141v22l-128 141v108z" />
    <glyph glyph-name="Euro" unicode="&#x20ac;" horiz-adv-x="655" 
d="M84 444h60q8 85 54 152q80 120 225 120q87 0 156 -47l-27 -67q-60 38 -122 38q-100 2 -155 -94q-27 -47 -33 -102h269l-14 -56h-263q-5 -51 3 -108h234l-14 -56h-209q16 -76 70 -118.5t128 -42.5q81 0 139 49v-84q-66 -44 -155 -44q-146 0 -228 115q-41 60 -51 125h-81
l14 56h57q-5 62 -2 108h-69z" />
    <glyph glyph-name="afii61352" unicode="&#x2116;" horiz-adv-x="1040" 
d="M692 314h308v-62h-308v62zM70 0v394q0 42 1 59t5.5 54t18 66t36.5 56q73 85 199 85q127 0 200 -85q22 -26 35.5 -55.5t18.5 -67t5.5 -54.5t0.5 -58v-394h-92v400q0 40 -0.5 57.5t-8 52t-23.5 58.5q-45 69 -136 69q-91 -1 -135 -69q-15 -23 -23 -55t-9 -53.5t-1 -60.5
v-399h-92zM692 543q0 71 38 116q43 52 116 52t116 -52q38 -45 38 -116q0 -70 -38 -115q-43 -52 -116 -52t-116 52q-38 45 -38 115zM761 544q0 -50 18 -79q23 -37 67 -37t67 37q18 29 18 79q0 52 -18 80q-23 37 -67 37t-67 -37q-18 -28 -18 -80z" />
    <glyph glyph-name="published" unicode="&#x2117;" horiz-adv-x="983" 
d="M354 595h141q93 0 138 -32q57 -41 57 -121t-57 -121q-45 -33 -138 -33h-78v-183h-63v490zM417 544v-205h83h8q53 0 82 22q36 27 36 81q0 56 -36 82q-28 20 -90 20h-83zM70 349q0 175 123 298t299 123t298.5 -123t122.5 -298t-122.5 -298t-298.5 -123t-299 123t-123 298z
M127 349q0 -151 106.5 -258t258.5 -107t258.5 107t106.5 258t-106.5 258t-258.5 107t-258.5 -107t-106.5 -258z" />
    <glyph glyph-name="trademark" unicode="&#x2122;" horiz-adv-x="905" 
d="M40 700h280v-55h-106v-295h-70v295h-104v55zM375 350v197q0 79 24 112q33 48 98 48q37 0 66 -17t43 -48q30 65 107 65q64 0 98 -47q12 -17 18 -40.5t6.5 -34.5t0.5 -38v-197h-71v208q0 44 -10 62q-16 28 -52 28q-34 0 -52 -27q-10 -17 -10 -63v-208h-71v209q0 45 -11 62
q-17 27 -51 27t-51 -27q-11 -17 -11 -62v-209h-71z" />
    <glyph glyph-name="partialdiff" unicode="&#x2202;" horiz-adv-x="610" 
d="M174 626v80h6q66 0 128 -24.5t108 -66.5q82 -75 110 -195q25 -103 9 -214q-13 -98 -73 -159q-62 -63 -159 -63q-95 1 -159 59q-74 68 -74 173q0 99 64 165q63 63 154 63q100 0 160 -84q-4 54 -21 96q-31 79 -89 121q-69 49 -164 49zM164 214q0 -66 34 -109
q39 -50 105 -50t105 50q35 45 35 109q0 67 -35 109q-38 47 -105 47t-105 -47q-34 -41 -34 -109z" />
    <glyph glyph-name="product" unicode="&#x220f;" horiz-adv-x="680" 
d="M75 700h530v-700h-90v624h-350v-624h-90v700z" />
    <glyph glyph-name="summation" unicode="&#x2211;" horiz-adv-x="570" 
d="M50 700h462v-77h-356l185 -252l-185 -293h364v-78h-470v78l185 293l-185 252v77z" />
    <glyph glyph-name="minus" unicode="&#x2212;" horiz-adv-x="660" 
d="M70 338h520v-68h-520v68z" />
    <glyph glyph-name="division" unicode="&#x2215;" horiz-adv-x="452" 
d="M384 700h68l-384 -700h-68z" />
    <glyph glyph-name="uni2219" unicode="&#x2219;" horiz-adv-x="236" 
d="M70 316h96v-100h-96v100z" />
    <glyph glyph-name="radical" unicode="&#x221a;" horiz-adv-x="640" 
d="M70 480h128l190 -422h24v692h158v-58h-94v-692h-143l-191 422h-72v58z" />
    <glyph glyph-name="infinity" unicode="&#x221e;" horiz-adv-x="746" 
d="M373 252l-37 -41q-53 -59 -121 -59q-60 0 -102.5 43.5t-42.5 109.5q0 60 39 105.5t106 45.5q74 0 121 -55l37 -43l37 40q52 58 121 58q65 0 105 -44t40 -107q0 -69 -42.5 -112t-102.5 -41q-69 2 -121 59zM422 305l29 -33q35 -40 74 -40q26 0 47 19.5t20 53.5
q-1 33 -20 53t-47 19q-40 -1 -74 -40zM324 305l-29 32q-36 40 -74 40q-25 0 -45.5 -19.5t-21.5 -52.5q-1 -32 19 -52t48 -21q37 -1 74 40z" />
    <glyph glyph-name="integral" unicode="&#x222b;" horiz-adv-x="321" 
d="M163 474l77 -434q10 -54 11 -104q0 -61 -25 -95q-32 -43 -85 -41q-38 1 -54 22t-16 45q0 28 16 41.5t37 13.5q31 0 40 -28q9 17 9 53q0 18 -12 93l-78 434q-12 71 -13 109q-2 56 24 90q32 42 87 41q39 -1 54.5 -21t15.5 -42q0 -26 -16.5 -42.5t-39.5 -16.5q-29 0 -43 26
q-5 -15 -5 -35q1 -29 16 -109z" />
    <glyph glyph-name="approxequal" unicode="&#x2248;" horiz-adv-x="660" 
d="M70 431q67 60 128 60q50 0 132 -46q5 -3 24.5 -14.5t26 -14.5t22 -10.5t23.5 -10.5t20 -5.5t23 -2.5q57 0 121 72v-68q-67 -60 -128 -60q-50 0 -132 46q-5 3 -24.5 14.5t-26 14.5t-22 10.5t-23.5 10.5t-20 5.5t-23 2.5q-57 0 -121 -72v68zM70 201q67 60 128 60
q50 0 132 -46q5 -3 24.5 -14.5t26 -14.5t22 -10.5t23.5 -10.5t20 -5.5t23 -2.5q57 0 121 72v-68q-67 -60 -128 -60q-50 0 -132 46q-5 3 -24.5 14.5t-26 14.5t-22 10.5t-23.5 10.5t-20 5.5t-23 2.5q-57 0 -121 -72v68z" />
    <glyph glyph-name="notequal" unicode="&#x2260;" horiz-adv-x="660" 
d="M70 443h304l65 117h74l-65 -117h142v-67h-180l-85 -152h265v-67h-303l-65 -117h-74l65 117h-143v67h181l85 152h-266v67z" />
    <glyph glyph-name="lessequal" unicode="&#x2264;" 
d="M70 488l420 172v-70l-356 -145v-22l356 -153v-70l-420 180v108zM70 250l420 -210v-70l-420 210v70z" />
    <glyph glyph-name="greaterequal" unicode="&#x2265;" 
d="M70 660l420 -172v-108l-420 -180v70l356 153v22l-356 145v70zM70 40l420 210v-70l-420 -210v70z" />
    <glyph glyph-name="dotmath" unicode="&#x22c5;" horiz-adv-x="236" 
d="M70 316h96v-100h-96v100z" />
    <glyph glyph-name="diameter" unicode="&#x2300;" horiz-adv-x="720" 
d="M580 670h68l-96 -134q98 -87 98 -216q0 -77 -39 -145t-106 -106q-68 -39 -143 -39q-73 0 -144 38l-70 -98h-68l92 129q-102 90 -102 221q0 77 39 145t106 106q67 39 150 39q84 0 143 -41zM208 149l265 371q-56 30 -114 30q-62 0 -114 -31q-53 -31 -84 -84.5t-31 -114.5
q0 -102 78 -171zM517 487l-264 -370q55 -27 108 -27q59 0 114 31q53 31 84 84.5t31 114.5q0 99 -73 167z" />
    <glyph glyph-name="filledvertrect" unicode="&#x25ae;" horiz-adv-x="224" 
d="M80 700h64v-700h-64v700z" />
    <glyph glyph-name="lozenge" unicode="&#x25ca;" horiz-adv-x="600" 
d="M245 700h110l175 -350l-173 -350h-114l-173 350zM293 635l-137 -285l137 -283h14l137 283l-137 285h-14z" />
    <glyph glyph-name="openbullet" unicode="&#x25e6;" horiz-adv-x="475" 
d="M125 544q0 -46 32.5 -79t79.5 -33t79.5 33t32.5 79t-32.5 79t-79.5 33t-79.5 -33t-32.5 -79zM70 544q0 70 48.5 118.5t118.5 48.5q69 0 118.5 -49t49.5 -118t-49.5 -118.5t-118.5 -49.5t-118 49.5t-49 118.5z" />
    <glyph glyph-name="star" unicode="&#x2606;" horiz-adv-x="628" 
d="M151 99h326v7q0 62 -35 109q-46 60 -128 60q-85 0 -128 -60q-15 -20 -25 -50.5t-10 -54.5v-11zM70 325q-6 51 14 88t49 55t71 28.5t65 12t45 1.5q40 0 76.5 -5.5t70 -19.5t57 -34.5t35 -53t5.5 -72.5l-103 44q2 43 -38 65q-35 20 -103 20q-66 0 -103 -20q-42 -23 -38 -65
zM79 39v29q0 111 50 178q65 88 185 89q60 1 112 -24t82 -65q47 -62 47 -182v-25h-476z" />
    <glyph glyph-name="Acute" unicode="&#xf6c9;" horiz-adv-x="455" 
d="M301 840h86l-97 -110h-86z" />
    <glyph glyph-name="Dieresis" unicode="&#xf6cb;" horiz-adv-x="620" 
d="M143 820h94v-70h-94v70zM395 820h94v-70h-94v70z" />
    <glyph glyph-name="cyrBreve" unicode="&#xf6d1;" horiz-adv-x="670" 
d="M155 850h80q4 -25 27 -46q28 -25 73 -25t73 25q23 21 27 46h80q-16 -53 -54 -88q-50 -45 -126 -45t-126 45q-38 35 -54 88z" />
    <glyph glyph-name="cyrbreve" unicode="&#xf6d4;" horiz-adv-x="550" 
d="M109 700h77q2 -35 20 -58q24 -31 69 -31t69 31q18 23 20 58h77q-5 -67 -50 -110q-47 -45 -116 -45t-116 45q-45 43 -50 110z" />
    <glyph glyph-name="u.alt" horiz-adv-x="540" 
d="M60 500h90v-277q0 -79 21 -112q33 -52 99 -52t99 52q21 33 21 112v277h90v-276q0 -33 -1.5 -54t-12.5 -55t-32 -60q-60 -71 -164 -71t-163 71q-22 26 -33 60t-12.5 54.5t-1.5 54.5v276z" />
    <glyph glyph-name="afii10145.alt" horiz-adv-x="660" 
d="M65 700h93v-396v-17v-17.5t0.5 -16t1 -17t1.5 -15t2.5 -16.5t4 -15.5t5.5 -16t7 -15t9 -16.5q48 -75 141 -75q94 0 141 75q14 24 21.5 54.5t8.5 50.5t1 56v397h93v-387q0 -79 -12 -137.5t-53 -106.5q-59 -70 -157 -80v-189h-86v189q-97 10 -157 80q-40 47 -52.5 107
t-12.5 137v387z" />
    <glyph glyph-name="afii10193.alt" horiz-adv-x="550" 
d="M60 500h91v-280q0 -77 24 -112q32 -47 100 -47t100 45q24 33 24 114v280h91v-276q0 -110 -47 -169q-46 -56 -125 -68v-187h-86v188q-76 10 -124 69q-48 60 -48 167v276z" />
    <glyph glyph-name="afii10098.alt" horiz-adv-x="330" 
d="M234 700h76v-258h-50q-66 0 -91 -36q-18 -24 -18 -104v-302h-91v302q0 35 1 52t10 48.5t28 53.5q48 55 135 54v190z" />
    <glyph glyph-name="afii10026.alt" horiz-adv-x="650" 
d="M65 700h92v-396q0 -39 1 -60.5t9 -53.5t23 -55q44 -68 135 -69q91 0 136 69q16 24 23.5 58.5t8 52t0.5 57.5v397h92v-394q0 -41 -0.5 -58t-5.5 -54.5t-18.5 -67t-35.5 -55.5q-73 -85 -200 -85q-126 0 -199 85q-23 27 -36.5 56t-18 66t-5.5 54t-1 59v394z" />
    <glyph glyph-name="afii10027.alt" horiz-adv-x="670" 
d="M155 850h80q4 -25 27 -46q28 -25 73 -25t73 25q23 21 27 46h80q-16 -53 -54 -88q-50 -45 -126 -45t-126 45q-38 35 -54 88zM75 700h92v-396q0 -39 1 -60.5t9 -53.5t23 -55q44 -68 135 -69q91 0 136 69q16 24 23.5 58.5t8 52t0.5 57.5v397h92v-394q0 -41 -0.5 -58
t-5.5 -54.5t-18.5 -67t-35.5 -55.5q-73 -85 -200 -85q-126 0 -199 85q-23 27 -36.5 56t-18 66t-5.5 54t-1 59v394z" />
    <glyph glyph-name="r.alt" horiz-adv-x="315" 
d="M60 0v305v11q0 37 1 57.5t10 50t26 49.5q40 46 117 43q44 -1 86 -16v-67q-48 16 -78 16q-51 2 -66 -43q-6 -16 -6 -91v-315h-90z" />
    <glyph glyph-name="afii10038.alt" horiz-adv-x="930" 
d="M372 630q-97 -6 -158 -77q-65 -74 -65 -202q0 -131 68 -205q75 -83 203 -85v572q0 42 23 61q22 18 63 18q160 3 265 -97q104 -99 104 -265t-106 -264t-309 -98q-88 0 -161 19.5t-137 78.5q-107 98 -107 264q0 164 103 261q90 84 214 89v-70zM504 61q37 0 71.5 8.5t57 19
t42.5 24.5t27.5 21t11.5 12q67 73 67 205q0 130 -66 206q-75 87 -211 85v-581z" />
    <glyph glyph-name="afii10040.alt" horiz-adv-x="662" 
d="M65 700h92v-396q0 -39 1 -60.5t9 -53.5t23 -55q44 -68 135 -69q91 0 136 69q16 24 23.5 58.5t8 52t0.5 57.5v397h92v-394q0 -92 -10 -134.5t-30 -69.5l62 -58l-56 -58l-59 54q-73 -54 -167 -54q-126 0 -199 85q-23 27 -36.5 56t-18 66t-5.5 54t-1 59v394z" />
    <glyph glyph-name="afii10042.alt" horiz-adv-x="990" 
d="M65 700h92v-411q0 -111 22 -152q35 -68 118 -68q89 0 129 71q12 22 18 52t6.5 44.5t0.5 52.5v411h88v-411v-9q0 -96 25 -140q40 -71 129 -71q83 0 118 68q22 41 22 152v411h92v-403v-14q0 -48 -1.5 -74.5t-13 -67t-34.5 -70.5q-65 -83 -181 -83q-65 0 -118.5 33t-81.5 95
q-28 -62 -81.5 -95t-118.5 -33q-116 0 -181 83q-23 30 -34.5 70.5t-13 67t-1.5 74.5v14v403z" />
    <glyph glyph-name="afii10043.alt" horiz-adv-x="1007" 
d="M65 700h92v-411q0 -111 22 -152q35 -68 118 -68q89 0 129 71q12 22 18 52t6.5 44.5t0.5 52.5v411h88v-411v-9q0 -96 25 -140q40 -71 129 -71q80 0 118 68q5 9 8.5 19t5.5 18t4 20.5t2.5 19.5t1 20.5t0.5 18.5v19v17v411h92v-403q0 -136 -25 -186l67 -55l-54 -68l-65 55
q-63 -55 -153 -55q-65 0 -118.5 33t-81.5 95q-28 -62 -81.5 -95t-118.5 -33q-116 0 -181 83q-23 30 -34.5 70.5t-13 67t-1.5 74.5v14v403z" />
    <glyph glyph-name="afii10069.alt" horiz-adv-x="600" 
d="M530 500v-700h-88v283q-54 -95 -169 -97q-99 -1 -162 74q-61 73 -61 190t61 190q63 75 162 74q116 -2 169 -95l3 81h85zM445 252q0 84 -30 130q-43 66 -122 66q-77 0 -119 -63q-32 -49 -32 -133q0 -85 32 -134q42 -63 119 -63q79 0 122 66q30 47 30 131z" />
    <glyph glyph-name="afii10074.alt" horiz-adv-x="540" 
d="M60 500h90v-277q0 -79 21 -112q33 -52 99 -52t99 52q21 33 21 112v277h90v-276q0 -33 -1.5 -54t-12.5 -55t-32 -60q-60 -71 -164 -71t-163 71q-22 26 -33 60t-12.5 54.5t-1.5 54.5v276z" />
    <glyph glyph-name="afii10075.alt" horiz-adv-x="550" 
d="M109 700h77q2 -35 20 -58q24 -31 69 -31t69 31q18 23 20 58h77q-5 -67 -50 -110q-47 -45 -116 -45t-116 45q-45 43 -50 110zM65 500h90v-277q0 -79 21 -112q33 -52 99 -52t99 52q21 33 21 112v277h90v-276q0 -33 -1.5 -54t-12.5 -55t-32 -60q-60 -71 -164 -71t-163 71
q-22 26 -33 60t-12.5 54.5t-1.5 54.5v276z" />
    <glyph glyph-name="afii10078.alt" horiz-adv-x="750" 
d="M130 500h124l121 -428l121 428h124l110 -500h-88l-88 437h-12l-124 -437h-86l-124 433h-12l-88 -433h-88z" />
    <glyph glyph-name="afii10081.alt" horiz-adv-x="540" 
d="M60 0v276q0 34 1.5 54.5t12.5 54.5t33 60q59 71 163 71t164 -71q21 -26 32 -60t12.5 -55t1.5 -54v-276h-90v280q0 79 -21 112q-33 52 -99 52t-99 -52q-21 -33 -21 -112v-280h-90z" />
    <glyph glyph-name="afii10086.alt" horiz-adv-x="760" 
d="M336 -200v193q-107 -2 -183 50q-103 72 -103 207t103 204q63 42 142 43v-65q-49 -3 -86 -28q-69 -48 -69 -154q0 -107 69 -155q51 -36 127 -34v365q0 49 26 68q18 13 62 13q111 0 183 -50q103 -73 103 -207q0 -137 -103 -207q-75 -52 -185 -50v-193h-86zM422 442v-381
q77 -2 129 34q69 48 69 155q0 108 -69 157q-51 37 -129 35z" />
    <glyph glyph-name="afii10090.alt" horiz-adv-x="820" 
d="M60 500h90v-285q0 -73 18 -104q30 -51 90 -51q59 0 89 51q20 36 20 104v285h86v-285q0 -69 20 -104q31 -51 89 -51q61 0 90 51q18 32 18 104v285h90v-284q0 -106 -33 -154q-50 -75 -152 -76q-15 0 -30 2.5t-43 12t-52.5 35t-39.5 64.5q-15 -39 -39.5 -64.5t-52.5 -35
t-43 -12t-30 -2.5q-102 1 -152 76q-33 48 -33 154v284z" />
    <glyph glyph-name="afii10092.alt" horiz-adv-x="589" 
d="M447 244q0 82 -31 127q-39 59 -114 59q-71 0 -113 -59q-32 -46 -32 -127t32 -127q41 -61 113 -61q73 0 114 61q31 45 31 127zM-20 700h110q40 0 55 -17q12 -14 12 -53v-219q50 89 157 89q101 1 165 -74q60 -71 60 -183q0 -113 -60 -183q-64 -76 -177 -76q-120 0 -184 87
q-31 42 -40 91t-9 117v351h-89v70z" />
    <glyph glyph-name="afii10093.alt" horiz-adv-x="780" 
d="M622 500h88v-500h-88v500zM438 244q0 82 -31 127q-39 59 -114 59q-71 0 -113 -59q-32 -46 -32 -127t32 -127q39 -59 111 -61q74 -1 116 61q31 45 31 127zM60 650h88v-239q50 89 157 89q101 1 165 -74q60 -71 60 -183q0 -113 -60 -183q-66 -76 -178 -76q-119 0 -183 87
q-31 42 -40 91t-9 117v371z" />
    <glyph glyph-name="afii10094.alt" horiz-adv-x="580" 
d="M438 244q0 82 -31 127q-39 59 -114 59q-71 0 -113 -59q-32 -46 -32 -127t32 -127q39 -59 111 -61q74 -1 116 61q31 45 31 127zM60 650h88v-239q50 89 157 89q101 1 165 -74q60 -71 60 -183q0 -113 -60 -183q-66 -76 -178 -76q-119 0 -183 87q-31 42 -40 91t-9 117v371z
" />
    <glyph glyph-name="n.alt" horiz-adv-x="540" 
d="M60 0v276q0 34 1.5 54.5t12.5 54.5t33 60q59 71 163 71t164 -71q21 -26 32 -60t12.5 -55t1.5 -54v-276h-90v280q0 79 -21 112q-33 52 -99 52t-99 -52q-21 -33 -21 -112v-280h-90z" />
    <glyph glyph-name="m.alt" horiz-adv-x="820" 
d="M60 0v284q0 106 33 154q50 75 152 76q15 0 30 -2.5t43 -12t52.5 -35t39.5 -64.5q15 39 39.5 64.5t52.5 35t43 12t30 2.5q102 -1 152 -76q33 -48 33 -154v-284h-90v288q0 72 -18 104q-29 51 -90 51q-58 0 -89 -51q-20 -35 -20 -104v-288h-86v288q0 68 -20 104
q-30 51 -89 51q-60 0 -90 -51q-18 -31 -18 -104v-288h-90z" />
    <glyph glyph-name="afii10033.alt" horiz-adv-x="650" 
d="M65 0v394q0 42 1 59t5.5 54t18 66t36.5 56q73 85 199 85q127 0 200 -85q22 -26 35.5 -55.5t18.5 -67t5.5 -54.5t0.5 -58v-394h-92v400q0 40 -0.5 57.5t-8 52t-23.5 58.5q-45 69 -136 69q-91 -1 -135 -69q-15 -23 -23 -55t-9 -53.5t-1 -60.5v-399h-92z" />
  </font>
</defs>
</svg>
